/* XPM */
static const char * toolsdiff_xpm[] = {
"16 15 2 1",
" 	c None",
".	c #000080",
"        .       ",
"        .       ",
"       ...      ",
"       ...      ",
"      .....     ",
"      .....     ",
"     .. ....    ",
"     .. ....    ",
"    ..   ....   ",
"    ..   ....   ",
"   ..     ....  ",
"   ..     ....  ",
"  ............. ",
"  ............. ",
"                "};
