/* XPM */
static const char * toolszoomplus_xpm[] = {
"16 15 30 1",
" 	c None",
".	c #757575",
"+	c #4C4C4C",
"@	c #777776",
"#	c #545454",
"$	c #555555",
"%	c #6A6969",
"&	c #676767",
"*	c #585757",
"=	c #807F7F",
"-	c #838282",
";	c #4D4D4D",
">	c #4E4E4E",
",	c #6C6C6B",
"'	c #6F6F6F",
")	c #9C9B9B",
"!	c #757474",
"~	c #6A6A6A",
"{	c #A2A2A1",
"]	c #575757",
"^	c #4F4F4F",
"/	c #80807F",
"(	c #6B6B6B",
"_	c #888787",
":	c #9A9999",
"<	c #878686",
"[	c #979796",
"}	c #828282",
"|	c #737373",
"1	c #818181",
"                ",
"     .++@       ",
"    #++++#      ",
"   $%    &*     ",
"  =+  ++  +-    ",
"  ++ +;>+ ++    ",
"  ++ ++++ ++    ",
"  ,+  ++  +'    ",
"  )+!    ~+{    ",
"   ]++  ^^+     ",
"    /(++'_++:   ",
"          <>+[  ",
"           };+_ ",
"            |++ ",
"             1  "};
