/* XPM */
static const char * toolsaddone_xpm[] = {
"16 15 4 1",
" 	c None",
".	c #000000",
"+	c #FFFFFF",
"@	c #000080",
"                ",
"        @    @@ ",
"        @   @@@ ",
"      @@@@@  @@ ",
"        @    @@ ",
"        @    @@ ",
"             @@ ",
"                ",
" .............  ",
" .+++++++++++.  ",
" .++.+...++.+.  ",
" .+..+.+.+..+.  ",
" .++.+...+..+.  ",
" .+++++++++++.  ",
" .............  "
};
