/* XPM */
static const char * toolscurr_xpm[] = {
"16 15 3 1",
" 	c None",
".	c #000080",
"+	c #000000",
"                ",
"                ",
"                ",
" ...            ",
"..  .           ",
"..              ",
"..    .. .. .. .",
"..    .. .. ... ",
"..    .. +. ..  ",
"..  . .. .. ..  ",
" ...   .... ..  ",
"                ",
"                ",
"                ",
"                "};
