/* XPM */
static const char * close_button_xpm[] = {
"16 16 80 1",
" 	c None",
".	c #686868",
"+	c #A2A2A1",
"@	c #9D9D9C",
"#	c #6B6B6B",
"$	c #5F605F",
"%	c #727371",
"&	c #5F5F5F",
"*	c #A1A0A0",
"=	c #9F9E9E",
"-	c #60605F",
";	c #727372",
">	c #626262",
",	c #5C5C5C",
"'	c #70716F",
")	c #898A88",
"!	c #878987",
"~	c #A09F9F",
"{	c #A3A2A2",
"]	c #5E5E5D",
"^	c #878886",
"/	c #6C6C6B",
"(	c #676767",
"_	c #B0B0B0",
":	c #5A5A5A",
"<	c #6B6D6A",
"[	c #767875",
"}	c #818381",
"|	c #5E5F5E",
"1	c #5B5B5B",
"2	c #818280",
"3	c #777976",
"4	c #686A68",
"5	c #565656",
"6	c #C7C7C7",
"7	c #AEAEAE",
"8	c #585858",
"9	c #666865",
"0	c #7C7E7B",
"a	c #7B7C7A",
"b	c #737572",
"c	c #BBBABA",
"d	c #ACABAB",
"e	c #666765",
"f	c #6E6F6D",
"g	c #575757",
"h	c #ADADAD",
"i	c #9E9E9E",
"j	c #757674",
"k	c #656664",
"l	c #5D5D5D",
"m	c #9A9A9A",
"n	c #A2A2A2",
"o	c #747573",
"p	c #686967",
"q	c #5F605E",
"r	c #757574",
"s	c #5B5B5A",
"t	c #9F9F9E",
"u	c #A6A5A5",
"v	c #6C6D6C",
"w	c #646563",
"x	c #5D5D5C",
"y	c #565655",
"z	c #5C5D5C",
"A	c #6D6E6C",
"B	c #646464",
"C	c #60615F",
"D	c #B7B6B6",
"E	c #BAB9B9",
"F	c #555555",
"G	c #5A5B5A",
"H	c #5C5C5B",
"I	c #656565",
"J	c #575857",
"K	c #B2B2B2",
"L	c #656564",
"M	c #666666",
"N	c #A4A3A3",
"O	c #A9A8A8",
"                ",
"                ",
"    .+    @#    ",
"   $%&*  =-;>   ",
"  ,')!&~{]^)/(  ",
"  _:<[}|123456  ",
"   789%0ab95c   ",
"    d8ef'egh    ",
"    i,jkkjlm    ",
"   n1opq]prst   ",
"  u1vwxy5zwA1u  ",
"  BzCs5DEFGCHB  ",
"   IJg7  K5gL   ",
"    MN    OB    ",
"                ",
"                "};
