/* XPM */
static const char * editcut_xpm[] = {
"24 24 195 2",
"  	c None",
". 	c #F0EFEE",
"+ 	c #EBEAE9",
"@ 	c #9A9B97",
"# 	c #DEDEDD",
"$ 	c #C0C1BE",
"% 	c #A1A39F",
"& 	c #B9BBB7",
"* 	c #949692",
"= 	c #A6A7A2",
"- 	c #E8E7E6",
"; 	c #8F918C",
"> 	c #959793",
", 	c #CDCCC9",
"' 	c #D8D9D5",
") 	c #969893",
"! 	c #D8D8D6",
"~ 	c #B3B4B0",
"{ 	c #B3B5B0",
"] 	c #CACBC7",
"^ 	c #9FA09B",
"/ 	c #8B8D88",
"( 	c #E2E2E0",
"_ 	c #CDCECB",
": 	c #A0A19C",
"< 	c #E0E0DE",
"[ 	c #90928D",
"} 	c #DEDFDC",
"| 	c #8E908B",
"1 	c #B1B1AD",
"2 	c #BABBB7",
"3 	c #E4E4E3",
"4 	c #9B9C97",
"5 	c #D1D1CF",
"6 	c #A7A8A4",
"7 	c #BDBEBC",
"8 	c #E0E0E0",
"9 	c #B8B9B5",
"0 	c #AEAEAB",
"a 	c #E7E6E6",
"b 	c #E1E1DF",
"c 	c #D6D6D5",
"d 	c #989994",
"e 	c #D5D4D2",
"f 	c #959792",
"g 	c #E1E1E0",
"h 	c #DCDCDB",
"i 	c #8E908C",
"j 	c #E6E6E5",
"k 	c #B9BAB6",
"l 	c #E5E5E4",
"m 	c #A5A7A2",
"n 	c #C8C9C6",
"o 	c #989A96",
"p 	c #DFDFDE",
"q 	c #ABACA8",
"r 	c #91938E",
"s 	c #DFDFDD",
"t 	c #DCDCDA",
"u 	c #949591",
"v 	c #C5C6C3",
"w 	c #E0E0DF",
"x 	c #D6D7D4",
"y 	c #ECEBEA",
"z 	c #BFBFBC",
"A 	c #ACADAA",
"B 	c #E5E5E5",
"C 	c #ADAEAA",
"D 	c #D5D5D2",
"E 	c #DEDEDE",
"F 	c #9FA09D",
"G 	c #C5C5C2",
"H 	c #EEEDEC",
"I 	c #93948F",
"J 	c #8D8F8A",
"K 	c #D7D7D6",
"L 	c #CDCDCB",
"M 	c #979994",
"N 	c #C6C5C3",
"O 	c #A6A7A4",
"P 	c #B8B9B7",
"Q 	c #B1B3AF",
"R 	c #969793",
"S 	c #CFCFCD",
"T 	c #8E8B87",
"U 	c #D6D6D4",
"V 	c #DCDAD9",
"W 	c #916D6C",
"X 	c #998D8B",
"Y 	c #EAE1E1",
"Z 	c #DCC2C3",
"` 	c #E1CCCC",
" .	c #945859",
"..	c #958A85",
"+.	c #9A3A40",
"@.	c #9F383C",
"#.	c #A14A4D",
"$.	c #F1EFEE",
"%.	c #CB999A",
"&.	c #B74746",
"*.	c #C74F4C",
"=.	c #AE4043",
"-.	c #B34444",
";.	c #AA5758",
">.	c #9A363B",
",.	c #C64B48",
"'.	c #A93F44",
").	c #AD4C4D",
"!.	c #B44242",
"~.	c #B24B4C",
"{.	c #D4AEAF",
"].	c #D0A6A9",
"^.	c #C44E4A",
"/.	c #CF514B",
"(.	c #C84E4B",
"_.	c #CF514C",
":.	c #AA3C3E",
"<.	c #9C3A3F",
"[.	c #CC9FA0",
"}.	c #A13E42",
"|.	c #AD3E40",
"1.	c #D1524C",
"2.	c #C14B48",
"3.	c #CEA3A5",
"4.	c #EAE0E0",
"5.	c #B54646",
"6.	c #D0524C",
"7.	c #B25051",
"8.	c #BA7276",
"9.	c #AE3E3F",
"0.	c #DAC0C0",
"a.	c #C28B8E",
"b.	c #B24042",
"c.	c #CE504B",
"d.	c #B16466",
"e.	c #B2484A",
"f.	c #D0514C",
"g.	c #B74646",
"h.	c #E8DBDA",
"i.	c #C69093",
"j.	c #CE514B",
"k.	c #BD4947",
"l.	c #E2CFD0",
"m.	c #CDA4A5",
"n.	c #B44343",
"o.	c #B54242",
"p.	c #C84D49",
"q.	c #D9BBBC",
"r.	c #E7D9D9",
"s.	c #CF504B",
"t.	c #C68E91",
"u.	c #B35456",
"v.	c #B65B5B",
"w.	c #C68D90",
"x.	c #B44545",
"y.	c #B34545",
"z.	c #C7989A",
"A.	c #BD7477",
"B.	c #B55454",
"C.	c #B44C4D",
"D.	c #BF7D80",
"E.	c #B34E4F",
"F.	c #B75C5D",
"G.	c #B96B6E",
"H.	c #B04849",
"I.	c #EEE8E8",
"J.	c #CB9DA0",
"K.	c #B2494A",
"L.	c #B75C5E",
"M.	c #B04B4D",
"N.	c #BE7E7F",
"O.	c #C94E4A",
"P.	c #CA504B",
"Q.	c #CFA6A7",
"R.	c #DDC5C6",
"S.	c #C04A49",
"T.	c #CE514C",
"U.	c #B14E50",
"V.	c #B05457",
"W.	c #B35253",
"X.	c #D3B1B2",
"Y.	c #C74E4A",
"Z.	c #B25254",
"`.	c #C28384",
" +	c #CB4F4A",
".+	c #C89597",
"++	c #C48B8A",
"@+	c #B84645",
"#+	c #B66163",
"$+	c #ECE3E3",
"%+	c #CA989A",
"&+	c #B24747",
"*+	c #BA7172",
"=+	c #F0ECEB",
"-+	c #EFEAE9",
"                                  .             ",
"            + @ #               $ %             ",
"            & * =             - ; > ,           ",
"            * ' ) !           ~ { ] ^           ",
"            / ( _ :         < [ < } |           ",
"            1 2 3 4 5       6 7 8 9 0           ",
"            a [ b c d .   e f g h i j           ",
"              k ~ l m n . o ] p q 2             ",
"              + r s t u v ^ w x [ y             ",
"                z A B C [ D E F G               ",
"                H I t < J K L M .               ",
"                  N O h P Q R S                 ",
"                  H T U V W X                   ",
"              Y Z `  ...+.@.#.$.$.              ",
"            %.&.*.=.-.;.>.,.'.).!.~.{.          ",
"          ].^./.(._.:.<.[.}.|./.1.1.2.3.        ",
"        4.5.6.7.8.1.9.0.  a.b.c.d.e.f.g.h.      ",
"        i.j.k.l.m._.n.    $.o.p.q.r.g.s.t.      ",
"        u.1.v.  w.f.x.      y._.z.  A.1.B.      ",
"        C.1.D.$.E.1.F.      G.1.H.I.J.j.K.      ",
"        L.1.M.N.O.P.Q.      R.S.T.U.V.1.W.      ",
"        X.Y.f././.Z.$.        `.Y.1.1. +.+      ",
"          ++x.@+#+$+            %+&+o.*+=+      ",
"            $.-+                                "};
