/* XPM */
static const char * editcopy_xpm[] = {
"24 24 59 1",
" 	c None",
".	c #ABACAA",
"+	c #A7A8A6",
"@	c #A8A9A7",
"#	c #A9AAA8",
"$	c #AAABA9",
"%	c #ACACAB",
"&	c #ACADAB",
"*	c #ADAEAC",
"=	c #AEAFAD",
"-	c #AFAFAE",
";	c #B3B4B2",
">	c #A0A19E",
",	c #EDEDED",
"'	c #9A9B98",
")	c #ECECEC",
"!	c #BDBDBD",
"~	c #A3A4A2",
"{	c #949592",
"]	c #EBEBEB",
"^	c #9D9F9C",
"/	c #8E8F8C",
"(	c #EAEAEA",
"_	c #979995",
":	c #888A86",
"<	c #E8E8E8",
"[	c #BABABA",
"}	c #91928F",
"|	c #82847F",
"1	c #E7E7E7",
"2	c #878986",
"3	c #858682",
"4	c #898B87",
"5	c #929490",
"6	c #979895",
"7	c #9B9D9A",
"8	c #A4A5A3",
"9	c #B2B2B1",
"0	c #B6B7B6",
"a	c #BFBFBE",
"b	c #7C7E79",
"c	c #E6E6E6",
"d	c #787A75",
"e	c #B2B3B1",
"f	c #E4E4E4",
"g	c #B6B6B6",
"h	c #E3E3E3",
"i	c #A1A2A0",
"j	c #E2E2E2",
"k	c #989996",
"l	c #E0E0E0",
"m	c #B3B3B3",
"n	c #8F918D",
"o	c #DFDFDF",
"p	c #878884",
"q	c #DEDEDE",
"r	c #7E807C",
"s	c #DCDCDC",
"t	c #80827D",
"                        ",
"   .++@##$.%&*=-;       ",
"   >,,,,,,,,,,,,#       ",
"   ')!!!!!!!!!!)~       ",
"   {]]]]]]]]]]]]^       ",
"   /((((((((((((_       ",
"   :<[[[[[[<<<<<}       ",
"   |11111234/567>8#*90a ",
"   bcccccd,,,,,,,,,,,,e ",
"   dfggggd)!!!!!!!!!!)# ",
"   dhhhhhd]]]]]]]]]]]]i ",
"   djjjjjd((((((((((((k ",
"   dlmmmmd<[[[[[[<<<<<n ",
"   doooood111111111111p ",
"   dqqqqqdccccccccccccr ",
"   dsssssdfgggggggggffd ",
"   tddddddhhhhhhhhhhhhd ",
"         djjjjjjjjjjjjd ",
"         dlmmmmmmmmllld ",
"         dooooooooooood ",
"         dqqqqqqqqqqqqd ",
"         dssssssssssssd ",
"         tddddddddddddt ",
"                        "};
