/* XPM */
static const char * editpaste_xpm[] = {
"24 24 102 2",
"  	c None",
". 	c #7E7E7E",
"+ 	c #797979",
"@ 	c #F1F0EF",
"# 	c #F0EFEE",
"$ 	c #7F7F7F",
"% 	c #ABABAB",
"& 	c #828282",
"* 	c #EDECEB",
"= 	c #B08D5F",
"- 	c #AD8757",
"; 	c #A4855E",
"> 	c #848280",
", 	c #DADADA",
"' 	c #82817F",
") 	c #A5855D",
"! 	c #C5AD8D",
"~ 	c #C5AE8F",
"{ 	c #706F6D",
"] 	c #A3A3A2",
"^ 	c #CCCCCC",
"/ 	c #9F9F9E",
"( 	c #716F6D",
"_ 	c #C4AC8D",
": 	c #B59771",
"< 	c #5B5957",
"[ 	c #555555",
"} 	c #605D5A",
"| 	c #C2AA8B",
"1 	c #B3956E",
"2 	c #C1A989",
"3 	c #B1936B",
"4 	c #84847F",
"5 	c #858682",
"6 	c #898B87",
"7 	c #8E8F8C",
"8 	c #929490",
"9 	c #979895",
"0 	c #9B9D9A",
"a 	c #A0A19E",
"b 	c #A4A5A3",
"c 	c #A9AAA8",
"d 	c #ADAEAC",
"e 	c #B2B2B1",
"f 	c #B6B7B6",
"g 	c #BFBFBE",
"h 	c #BFA686",
"i 	c #AF9068",
"j 	c #787A75",
"k 	c #EDEDED",
"l 	c #B2B3B1",
"m 	c #BDA584",
"n 	c #AD8E65",
"o 	c #ECECEC",
"p 	c #BDBDBD",
"q 	c #BCA281",
"r 	c #AB8B62",
"s 	c #EBEBEB",
"t 	c #A1A2A0",
"u 	c #AC8656",
"v 	c #BAA17F",
"w 	c #A9895F",
"x 	c #EAEAEA",
"y 	c #989996",
"z 	c #AA8556",
"A 	c #B99F7D",
"B 	c #A7875D",
"C 	c #E8E8E8",
"D 	c #BABABA",
"E 	c #8F918D",
"F 	c #A88355",
"G 	c #B79D7B",
"H 	c #A5845A",
"I 	c #E7E7E7",
"J 	c #878884",
"K 	c #A68255",
"L 	c #B59B79",
"M 	c #A38257",
"N 	c #E6E6E6",
"O 	c #7E807C",
"P 	c #A48154",
"Q 	c #B49976",
"R 	c #A17F54",
"S 	c #E4E4E4",
"T 	c #B6B6B6",
"U 	c #A28054",
"V 	c #B29774",
"W 	c #9F7D51",
"X 	c #E3E3E3",
"Y 	c #A07E53",
"Z 	c #AF946F",
"` 	c #B19571",
" .	c #E2E2E2",
"..	c #A2835A",
"+.	c #9E7D53",
"@.	c #9D7D53",
"#.	c #E0E0E0",
"$.	c #B3B3B3",
"%.	c #DFDFDF",
"&.	c #DEDEDE",
"*.	c #DCDCDC",
"=.	c #80827D",
"                                                ",
"                . + + . @                       ",
"              # $ % % & *                       ",
"      = - - - ; > , , ' ) - - - =               ",
"      - ! ~ ~ { ] ^ ^ / ( ~ ~ ! -               ",
"      - _ : : < [ [ [ [ } : : _ -               ",
"      - | 1 1 1 1 1 1 1 1 1 1 | -               ",
"      - 2 3 3 3 3 4 5 6 7 8 9 0 a b c d e f g   ",
"      - h i i i i j k k k k k k k k k k k k l   ",
"      - m n n n n j o p p p p p p p p p p o c   ",
"      - q r r r r j s s s s s s s s s s s s t   ",
"      u v w w w w j x x x x x x x x x x x x y   ",
"      z A B B B B j C D D D D D D C C C C C E   ",
"      F G H H H H j I I I I I I I I I I I I J   ",
"      K L M M M M j N N N N N N N N N N N N O   ",
"      P Q R R R R j S T T T T T T T T T S S j   ",
"      U V W W W W j X X X X X X X X X X X X j   ",
"      Y Z ` ` ` ` j  . . . . . . . . . . . .j   ",
"      ..+.+.+.@.@.j #.$.$.$.$.$.$.$.$.#.#.#.j   ",
"                  j %.%.%.%.%.%.%.%.%.%.%.%.j   ",
"                  j &.&.&.&.&.&.&.&.&.&.&.&.j   ",
"                  j *.*.*.*.*.*.*.*.*.*.*.*.j   ",
"                  =.j j j j j j j j j j j j =.  ",
"                                                "};
