/* XPM */
static const char * fileprint_xpm[] = {
"24 24 115 2",
"  	c None",
". 	c #B8B9B5",
"+ 	c #BABBB7",
"@ 	c #BEBFBB",
"# 	c #B6B7B3",
"$ 	c #F4F4F4",
"% 	c #EBEBEB",
"& 	c #D9D9D9",
"* 	c #535452",
"= 	c #B5B6B2",
"- 	c #C8C8C8",
"; 	c #545552",
"> 	c #3C3D3A",
", 	c #D3D3D3",
"' 	c #B6B6B6",
") 	c #CDCDCD",
"! 	c #A4A4A4",
"~ 	c #CECECE",
"{ 	c #C2C2C2",
"] 	c #939393",
"^ 	c #C7C7C7",
"/ 	c #B7B7B7",
"( 	c #CBCBCA",
"_ 	c #ABABAB",
": 	c #A9A9A9",
"< 	c #545652",
"[ 	c #565855",
"} 	c #565755",
"| 	c #565754",
"1 	c #555754",
"2 	c #555654",
"3 	c #525451",
"4 	c #A7A7A7",
"5 	c #AAAAAA",
"6 	c #CACAC9",
"7 	c #A6A6A6",
"8 	c #F9F9F9",
"9 	c #FDFDFD",
"0 	c #FCFCFC",
"a 	c #515451",
"b 	c #8D8D8D",
"c 	c #828282",
"d 	c #777777",
"e 	c #6C6C6C",
"f 	c #606060",
"g 	c #5B5B5B",
"h 	c #4F5250",
"i 	c #EEEEEE",
"j 	c #A0A0A0",
"k 	c #EDEDED",
"l 	c #494C4B",
"m 	c #6D6D6D",
"n 	c #4D4D4D",
"o 	c #4C4C4C",
"p 	c #474B49",
"q 	c #9E9E9E",
"r 	c #9B9B9B",
"s 	c #F6F6F6",
"t 	c #E5E5E5",
"u 	c #434646",
"v 	c #4A4A4A",
"w 	c #3F3F3F",
"x 	c #3E3E3E",
"y 	c #414444",
"z 	c #999999",
"A 	c #969696",
"B 	c #EFEFEF",
"C 	c #DEDEDE",
"D 	c #3B4040",
"E 	c #303030",
"F 	c #2F2F2F",
"G 	c #393E3F",
"H 	c #949494",
"I 	c #919191",
"J 	c #D6D6D6",
"K 	c #303537",
"L 	c #2F3537",
"M 	c #2F3536",
"N 	c #2F3436",
"O 	c #2E3436",
"P 	c #909090",
"Q 	c #DADADA",
"R 	c #CFCFCF",
"S 	c #8CED5C",
"T 	c #8B8B8B",
"U 	c #888888",
"V 	c #CBCBCB",
"W 	c #C9C9C9",
"X 	c #868686",
"Y 	c #898989",
"Z 	c #838383",
"` 	c #EDECEB",
" .	c #DDDCDB",
"..	c #3F403D",
"+.	c #4E4E4E",
"@.	c #505050",
"#.	c #E6E6E6",
"$.	c #323232",
"%.	c #4F4F4E",
"&.	c #F1F0EF",
"*.	c #E2E1E0",
"=.	c #7D7D7B",
"-.	c #40413E",
";.	c #E3E3E3",
">.	c #3E3F3C",
",.	c #7D7E7B",
"'.	c #E0DFDE",
").	c #676865",
"!.	c #5D5D5A",
"~.	c #EEEDEC",
"{.	c #E9E8E7",
"].	c #E4E3E2",
"^.	c #DFDEDD",
"/.	c #DAD9D8",
"(.	c #D8D7D7",
"                                                ",
"          . + + + + + + + + + + + + @           ",
"          # $ $ $ $ $ $ $ $ $ $ $ $ #           ",
"          # $ $ $ $ % % % % $ $ $ $ #           ",
"          # $ $ $ $ & & & & $ $ $ $ #           ",
"        * = $ $ $ $ - - - - $ $ $ $ = ;         ",
"        > = $ $ , ' ' ' ' ' ' , $ $ = >         ",
"        > = $ $ $ ) ! ! ! ! ~ $ $ $ = >         ",
"        > = $ $ $ $ { ] ] ^ $ $ $ $ = >         ",
"        > = $ $ $ $ $ ' / $ $ $ $ $ = >         ",
"        > = $ $ $ $ $ $ $ $ $ $ $ $ = >         ",
"  ( _ : : < [ [ [ [ } } } | | 1 1 2 3 4 4 5 6   ",
"  7 8 9 0 a b c d e f g g g g g g g h $ $ i !   ",
"  j 0 k k l m n n n n n n n n o o o p k k k q   ",
"  r s t t u v w w w x x x x x x x x y t t t z   ",
"  A B C C D E E E E E E E E E F F F G C C C H   ",
"  I t J J K L L L L L M N O O O O O O J J J P   ",
"  b Q R R R R R R R R R R R R R R R R R S R T   ",
"  U V V V W ^ ^ ^ ^ ^ ^ ^ ^ ^ ^ ^ ^ ^ ^ ^ ^ X   ",
"  Y Z Z Z Z Z Z Z Z Z c c c c c c c c c c c U   ",
"`  ...+.@.#.$.$.$.$.$.$.$.$.$.$.$.$.#.@.%... .` ",
"&.*.=.-.> ;.#.#.#.#.#.#.#.#.#.#.#.#.;...>.,.*.&.",
"    ` '.).> > > > > > > > > > > > > > !.'.`     ",
"            ~.{.].^./.(.(./.^.].{.~.            "};
