/* XPM */
static const char * filenew_xpm[] = {
"24 24 169 2",
"  	c None",
". 	c #C9C9C9",
"+ 	c #C7C7C7",
"@ 	c #D2D1D1",
"# 	c #EAE9E9",
"$ 	c #C5C5C5",
"% 	c #FAFAFA",
"& 	c #F6F6F6",
"* 	c #E3E3E3",
"= 	c #DCDCDC",
"- 	c #C9C9C8",
"; 	c #E1E0E0",
"> 	c #C4C4C4",
", 	c #F8F8F8",
"' 	c #F0F0F0",
") 	c #F1F1F1",
"! 	c #EFEFEF",
"~ 	c #E4E5E5",
"{ 	c #CBCBCC",
"] 	c #DADADA",
"^ 	c #DBDADA",
"/ 	c #C3C3C3",
"( 	c #EDEDED",
"_ 	c #E1E1E2",
": 	c #C6C6C6",
"< 	c #F9F9F9",
"[ 	c #EAEAEA",
"} 	c #D5D5D5",
"| 	c #CBCBCB",
"1 	c #D8D7D7",
"2 	c #C1C1C1",
"3 	c #F7F7F7",
"4 	c #EEEEEE",
"5 	c #E1E1E1",
"6 	c #C1C1C2",
"7 	c #FCFDFD",
"8 	c #CFCFCF",
"9 	c #DFDFDE",
"0 	c #C0C0C0",
"a 	c #E3E3E4",
"b 	c #CACACA",
"c 	c #B6B7B7",
"d 	c #B2B3B4",
"e 	c #B4B4B5",
"f 	c #BDBEBE",
"g 	c #BEBEBE",
"h 	c #F4F4F4",
"i 	c #ECECEC",
"j 	c #E8E8E9",
"k 	c #DEDFDF",
"l 	c #D6D7D7",
"m 	c #D2D2D3",
"n 	c #D3D4D4",
"o 	c #D9DADA",
"p 	c #DDDDDD",
"q 	c #BABABA",
"r 	c #BDBDBD",
"s 	c #F3F3F3",
"t 	c #EBEBEB",
"u 	c #E7E7E7",
"v 	c #E0E1E1",
"w 	c #DDDDDE",
"x 	c #DEDEDF",
"y 	c #BCBCBC",
"z 	c #F2F2F2",
"A 	c #E9E9E9",
"B 	c #F5F5F5",
"C 	c #E8E8E8",
"D 	c #B9B9B9",
"E 	c #B7B7B7",
"F 	c #E6E6E6",
"G 	c #B6B6B6",
"H 	c #E5E5E5",
"I 	c #B5B5B5",
"J 	c #E4E4E4",
"K 	c #E4E4E3",
"L 	c #89A926",
"M 	c #80A317",
"N 	c #86A625",
"O 	c #B3B3B3",
"P 	c #E2E3E2",
"Q 	c #7C9F1A",
"R 	c #F3F9AB",
"S 	c #ECF5A3",
"T 	c #E4F199",
"U 	c #7B9E19",
"V 	c #B2B2B2",
"W 	c #E2E2E2",
"X 	c #E1E2E1",
"Y 	c #759819",
"Z 	c #EDF69F",
"` 	c #DEED68",
" .	c #E2F090",
"..	c #749718",
"+.	c #B0B0B0",
"@.	c #769724",
"#.	c #6B8F14",
"$.	c #7B9B23",
"%.	c #E4F08E",
"&.	c #D5E85C",
"*.	c #DBEC83",
"=.	c #709319",
"-.	c #779827",
";.	c #AFAFAF",
">.	c #DFDFDF",
",.	c #658A15",
"'.	c #CFE272",
").	c #D5E777",
"!.	c #D8E979",
"~.	c #D9EA7B",
"{.	c #CBE14E",
"].	c #D3E575",
"^.	c #CDE171",
"/.	c #C6DB6B",
"(.	c #BED565",
"_.	c #678B16",
":.	c #AEAEAE",
"<.	c #DEDEDE",
"[.	c #608416",
"}.	c #C5DA64",
"|.	c #BCD642",
"1.	c #C0D945",
"2.	c #BED844",
"3.	c #BAD440",
"4.	c #B3CF3B",
"5.	c #ABC936",
"6.	c #B4CE58",
"7.	c #5F8516",
"8.	c #ACACAC",
"9.	c #577D14",
"0.	c #B8D154",
"a.	c #BCD557",
"b.	c #BED659",
"c.	c #BED658",
"d.	c #B2CE3A",
"e.	c #BAD356",
"f.	c #B5D052",
"g.	c #AFCB4E",
"h.	c #A8C549",
"i.	c #577F15",
"j.	c #ABABAB",
"k.	c #577C1D",
"l.	c #4E7511",
"m.	c #597E19",
"n.	c #B0CB48",
"o.	c #A5C430",
"p.	c #ABC845",
"q.	c #557B16",
"r.	c #5A7F21",
"s.	c #AAAAAA",
"t.	c #DBDBDB",
"u.	c #4A7112",
"v.	c #A0C035",
"w.	c #98BA26",
"x.	c #9BBC33",
"y.	c #497012",
"z.	c #ADADAD",
"A.	c #A9A9A9",
"B.	c #426911",
"C.	c #8DB123",
"D.	c #8CB023",
"E.	c #88AC22",
"F.	c #EFEEED",
"G.	c #E1E0DF",
"H.	c #E0DFDE",
"I.	c #DFDEDD",
"J.	c #416917",
"K.	c #39620E",
"L.	c #456B1C",
". + + + + + + + + + + + @ #                     ",
"$ % % % % % % % % % & * = - ;                   ",
"> , ' ' ' ' ' ' ) ! ~ { ' ] + ^                 ",
"/ , ! ! ! ! ! ! ) ( _ : < [ } | 1               ",
"2 3 4 4 4 4 4 4 ' ( 5 6 7 3 * 8 . 9             ",
"0 & ( ( ( ( ( ( ! ( a b c d e f | /             ",
"g h i i i i i i i ! j k l m n o p q             ",
"r s t t t t t t t 4 ( u v w x * s q             ",
"y z [ [ [ [ [ [ [ [ 4 4 t A A i B y             ",
"q ' C C C C C C C C C i ( 4 ( ( ) q             ",
"D ! u u u u u u u u u u u u u u ! D             ",
"E 4 F F F F F F F F F F F F F F 4 E             ",
"G i H H H H H H H H H H H H H H i G             ",
"I t J J J J J J J J J J K L M M M N             ",
"O A * * * * * * * * * * P Q R S T U             ",
"V u W W W W W W W W W W X Y Z `  ...            ",
"+.F 5 5 5 5 5 5 5 5 @.#.#.$.%.&.*.=.#.#.-.      ",
";.* >.>.>.>.>.>.>.>.,.'.).!.~.{.].^./.(._.      ",
":.5 <.<.<.<.<.<.<.<.[.}.|.1.1.2.3.4.5.6.7.      ",
"8.>.p p p p p p p p 9.0.a.b.c.d.e.f.g.h.i.      ",
"j.p = = = = = = = = k.l.l.m.n.o.p.q.l.l.r.      ",
"s.t.t.t.t.t.t.t.t.t.t.t.] u.v.w.x.y.            ",
"z.s.s.s.s.s.s.s.s.s.s.s.A.B.C.D.E.B.F.          ",
"G.H.H.H.H.H.H.H.H.H.H.H.I.J.K.K.K.L.F.          "};
