/* XPM */
static const char * filesave_xpm[] = {
"24 24 236 2",
"  	c None",
". 	c #E8E7E6",
"+ 	c #C2C2C2",
"@ 	c #B6B6B6",
"# 	c #B4B4B4",
"$ 	c #B1B1B1",
"% 	c #AEAEAE",
"& 	c #ABABAB",
"* 	c #A8A8A8",
"= 	c #A5A5A5",
"- 	c #A2A2A2",
"; 	c #9F9F9F",
"> 	c #9C9C9C",
", 	c #999999",
"' 	c #969696",
") 	c #E4E3E2",
"! 	c #BDBDBD",
"~ 	c #CCCCCC",
"{ 	c #DBDBDB",
"] 	c #D9D9D9",
"^ 	c #D7D7D7",
"/ 	c #60902F",
"( 	c #548820",
"_ 	c #D1D1D1",
": 	c #CFCFCF",
"< 	c #EEEDEC",
"[ 	c #B8B8B8",
"} 	c #DDDDDD",
"| 	c #CDCDCD",
"1 	c #DADADA",
"2 	c #578A23",
"3 	c #E4F099",
"4 	c #E4F09A",
"5 	c #C6C6C6",
"6 	c #BEBEBE",
"7 	c #BABABA",
"8 	c #9B9B9B",
"9 	c #EDECEB",
"0 	c #E6E6E5",
"a 	c #DEDEDE",
"b 	c #B2B2B2",
"c 	c #DCDCDC",
"d 	c #E2E2E2",
"e 	c #E3E3E3",
"f 	c #E3EF95",
"g 	c #D7E866",
"h 	c #D6D6D6",
"i 	c #E1E1E0",
"j 	c #DFDEDE",
"k 	c #C1C1C1",
"l 	c #DFDFDF",
"m 	c #C5C5C5",
"n 	c #E4E4E4",
"o 	c #E9E9E9",
"p 	c #F0F0F0",
"q 	c #578B23",
"r 	c #E3EF92",
"s 	c #D3D3D3",
"t 	c #C0C0C0",
"u 	c #D0D0D0",
"v 	c #A9A9A9",
"w 	c #D6D5D5",
"x 	c #D8D7D6",
"y 	c #E7E7E7",
"z 	c #E8E8E8",
"A 	c #E2EE8F",
"B 	c #D5D5D5",
"C 	c #AFAFAE",
"D 	c #CCCBCA",
"E 	c #CFCFCE",
"F 	c #C8C8C8",
"G 	c #E1E1E1",
"H 	c #578A22",
"I 	c #DDEB8A",
"J 	c #D2E462",
"K 	c #BFBFBE",
"L 	c #D9DAD8",
"M 	c #5B8C29",
"N 	c #63932B",
"O 	c #D7E582",
"P 	c #CADD5B",
"Q 	c #5D8E27",
"R 	c #5B8C2A",
"S 	c #CFD0CE",
"T 	c #BBBBBB",
"U 	c #B3B3B3",
"V 	c #BCBCBC",
"W 	c #D2D2D2",
"X 	c #D8D8D8",
"Y 	c #AFAFAF",
"Z 	c #B0C09F",
"` 	c #669433",
" .	c #C1D571",
"..	c #D0E07B",
"+.	c #CFE07A",
"@.	c #C2D755",
"#.	c #C1D671",
"$.	c #659432",
"%.	c #A7B797",
"&.	c #CECECE",
"*.	c #CBCBCB",
"=.	c #ABBE98",
"-.	c #669431",
";.	c #BCD26B",
">.	c #BED35A",
",.	c #B9D04E",
"'.	c #BDD359",
").	c #679332",
"!.	c #A5B892",
"~.	c #C4C4C4",
"{.	c #C7C7C7",
"].	c #9D9D9D",
"^.	c #EFEEED",
"/.	c #ADADAD",
"(.	c #D4D4D4",
"_.	c #A2B98B",
":.	c #689633",
"<.	c #B8CD64",
"[.	c #B5CC52",
"}.	c #B1C948",
"|.	c #B7CD64",
"1.	c #699633",
"2.	c #9EB487",
"3.	c #A3A3A3",
"4.	c #C9C9C9",
"5.	c #989898",
"6.	c #B0B0B0",
"7.	c #99B37E",
"8.	c #699532",
"9.	c #B2C95C",
"0.	c #ACC548",
"a.	c #B1C95C",
"b.	c #9BB282",
"c.	c #E5E4E3",
"d.	c #DEDEDD",
"e.	c #B5B5B5",
"f.	c #8DAA70",
"g.	c #6D9834",
"h.	c #AAC254",
"i.	c #8FAA71",
"j.	c #CACACA",
"k.	c #9E9E9E",
"l.	c #A6A6A6",
"m.	c #D9D9D8",
"n.	c #D5D4D4",
"o.	c #B7B7B7",
"p.	c #D4D5D4",
"q.	c #83A461",
"r.	c #729B37",
"s.	c #719B37",
"t.	c #84A561",
"u.	c #D0D1D0",
"v.	c #CFCECE",
"w.	c #CBCACA",
"x.	c #E5E5E5",
"y.	c #D1D2D0",
"z.	c #83A45E",
"A.	c #82A45F",
"B.	c #C3C2C2",
"C.	c #BFBEBE",
"D.	c #ECECEC",
"E.	c #E6E6E6",
"F.	c #E0E0E0",
"G.	c #EAEAEA",
"H.	c #B8B7B7",
"I.	c #B5B4B4",
"J.	c #EEEEEE",
"K.	c #F2F2F2",
"L.	c #F4F4F4",
"M.	c #F3F3F3",
"N.	c #F1F1F1",
"O.	c #EDEDED",
"P.	c #BFBFBF",
"Q.	c #AAAAAA",
"R.	c #C3C3C3",
"S.	c #A1A1A1",
"T.	c #8F8F8F",
"U.	c #454547",
"V.	c #656565",
"W.	c #535353",
"X.	c #141414",
"Y.	c #2B2B2B",
"Z.	c #404040",
"`.	c #525252",
" +	c #626262",
".+	c #6E6E6E",
"++	c #787878",
"@+	c #808080",
"#+	c #868686",
"$+	c #888888",
"%+	c #878787",
"&+	c #858585",
"*+	c #7F7F7F",
"=+	c #7B7B7B",
"-+	c #757575",
";+	c #737373",
">+	c #717171",
",+	c #646464",
"'+	c #49494A",
")+	c #585858",
"!+	c #565657",
"~+	c #555555",
"{+	c #171717",
"]+	c #2D2D2D",
"^+	c #3E3E3E",
"/+	c #505050",
"(+	c #606060",
"_+	c #6C6C6C",
":+	c #767676",
"<+	c #848484",
"[+	c #7E7E7E",
"}+	c #777777",
"|+	c #727272",
"1+	c #6F6F6F",
"2+	c #696969",
"3+	c #666666",
"4+	c #636363",
"5+	c #545454",
"6+	c #626263",
"7+	c #6D6D6E",
"8+	c #474748",
"9+	c #797979",
"0+	c #818181",
"a+	c #747474",
"b+	c #616161",
"c+	c #5D5D5D",
"d+	c #5B5B5B",
"e+	c #454546",
"f+	c #AAA9AA",
"g+	c #3C3C3D",
"h+	c #39393B",
"i+	c #3D3D40",
"j+	c #F2F1F0",
"k+	c #E6E5E4",
"l+	c #D3D2D1",
"m+	c #CDCCCB",
"    . + @ # $ % & * = - ; > , ' ' ' ' , & )     ",
"    ! ~ { ] ^ ~ / ( ( ( ( ( ( / ~ ~ _ : @ =     ",
"  < [ } ^ & | 1 2 3 4 4 4 4 3 2 5 6 7 _ : 8 9   ",
"  0 ! a b c d e 2 f g g g g f 2 h | # _ : - i   ",
"  j k l m n o p q r g g g g r 2 h s t _ u v w   ",
"  x 5 h u y z z 2 A g g g g A 2 h B : _ u C D   ",
"  E F c } G h k H I J J J J I 2 h B h _ u # K   ",
"  m | a L M ( ( N O P P P P O Q ( ( R S : T U   ",
"  V W X Y Z `  ...+.@.@.@.@.+...#.$.%.[ &.k *   ",
"  U h $ *.} =.-.;.>.,.,.,.,.'.;.).!._ ~.T {.].  ",
"^./.(., 1 { { _.:.<.[.}.}.[.|.1.2.W u : 3.4.5.^.",
". 6.~ v X ] ] ] 7.8.9.0.0.a.8.b.W _ : &.8 5 ; c.",
"d.e.s % (.^ ^ ^ ^ f.g.h.h.g.i.W _ : &.j.k.F l.m.",
"n.o.s m _ h B B B p.q.r.s.t.u.u : &.&.k [ 4.& v.",
"w.7 _ W ^ x.} (.s s y.z.A.S : : : X G F 4.F Y B.",
"C.! _ u _ c z D.E.d l c { } F.x.G.y h 4.F j.e.H.",
"I.k * | : : u { n J.K.L.M.N.O.e ^ j.F F 5 /.P.Q.",
"v F 5 | | | | | | &.: _ u &.*.4.4.F F F 4.~.R.S.",
", : h B B B B B B B B B B B B B B B B B B B | T.",
"U.V.W.X.Y.Z.`. +.+++@+#+$+%+&+*+=+++-+;+>+.+,+'+",
")+!+~+{+]+^+/+(+_+:+*+<+#+<+[+}+|+1+_+2+3+4+5+6+",
"7+8+5+9+#+0+}+a+-+-+++}+}+-+>+2+4+b+c+d+)+5+e+0+",
"f+g+h+h+h+h+h+h+h+h+h+h+h+h+h+h+h+h+h+h+h+h+i+B.",
"j+k+l+m+m+m+m+m+m+m+m+m+m+m+m+m+m+m+m+m+m+l+k+j+"};
