/* XPM */
static const char * fileopen_xpm[] = {
"24 24 295 2",
"  	c None",
". 	c #C3C3C3",
"+ 	c #C5C5C5",
"@ 	c #C0C0C0",
"# 	c #D9D8D8",
"$ 	c #F0EFEF",
"% 	c #CDCCCC",
"& 	c #C1C1C1",
"* 	c #BEBEBE",
"= 	c #F4F4F4",
"- 	c #B2B2B2",
"; 	c #EEEEEE",
"> 	c #C9C9C9",
", 	c #C4C4C4",
"' 	c #E7E6E5",
") 	c #F7F7F7",
"! 	c #FBFBFB",
"~ 	c #BBBBBA",
"{ 	c #F3F3F3",
"] 	c #A5A5A4",
"^ 	c #FEFEFE",
"/ 	c #D1D1D1",
"( 	c #E9E8E7",
"_ 	c #BFBFBF",
": 	c #F9F9F9",
"< 	c #EFC78A",
"[ 	c #EDBD74",
"} 	c #B7B8B6",
"| 	c #F1F1F1",
"1 	c #989896",
"2 	c #C8C8C8",
"3 	c #BDBDBD",
"4 	c #BCBCBC",
"5 	c #F5F5F5",
"6 	c #B3B4B3",
"7 	c #EFEFEF",
"8 	c #9F9F9E",
"9 	c #9A9A98",
"0 	c #9F9F9D",
"a 	c #ACACAB",
"b 	c #B2B2B1",
"c 	c #F0EFEE",
"d 	c #BABABA",
"e 	c #F6F6F6",
"f 	c #B0B1AF",
"g 	c #EDEDED",
"h 	c #EDECEB",
"i 	c #B9B9B9",
"j 	c #ADADAB",
"k 	c #ECECEC",
"l 	c #BBBBBB",
"m 	c #EBEBEA",
"n 	c #B4B4B4",
"o 	c #F0F0F0",
"p 	c #A9AAA8",
"q 	c #EAEAEA",
"r 	c #A6A7A4",
"s 	c #E8E8E8",
"t 	c #E6E5E5",
"u 	c #B0B0B0",
"v 	c #E9E9E9",
"w 	c #EBEBEB",
"x 	c #D99669",
"y 	c #DB9D71",
"z 	c #DA9B6F",
"A 	c #DB9C71",
"B 	c #DA9B6E",
"C 	c #DA996D",
"D 	c #D9986B",
"E 	c #DA9668",
"F 	c #D78F60",
"G 	c #ADADAD",
"H 	c #E6E6E6",
"I 	c #D99369",
"J 	c #F3D3B2",
"K 	c #F3D4B3",
"L 	c #F4D5B3",
"M 	c #F4D6B4",
"N 	c #F4D6B3",
"O 	c #F3D5B3",
"P 	c #F3D3B1",
"Q 	c #F3D1AF",
"R 	c #F3CFAD",
"S 	c #F2CEAC",
"T 	c #F2CBA9",
"U 	c #F0C9A6",
"V 	c #F0C6A5",
"W 	c #F0C4A2",
"X 	c #F0C1A1",
"Y 	c #F2BE9F",
"Z 	c #F0B28F",
"` 	c #EEA27A",
" .	c #ED9164",
"..	c #D99268",
"+.	c #ABABAB",
"@.	c #E4E4E4",
"#.	c #E5E5E5",
"$.	c #D79066",
"%.	c #F5D9B8",
"&.	c #F0C793",
"*.	c #F2CA95",
"=.	c #F2CC97",
"-.	c #F2CB97",
";.	c #F1C994",
">.	c #F0C590",
",.	c #EFC18C",
"'.	c #EEBD89",
").	c #EDB984",
"!.	c #ECB480",
"~.	c #EBB17C",
"{.	c #EAAC78",
"].	c #E9A773",
"^.	c #E9A16D",
"/.	c #EA9B67",
"(.	c #EA9461",
"_.	c #EB8E5B",
":.	c #EC8855",
"<.	c #D38357",
"[.	c #A8A8A8",
"}.	c #E1E1E1",
"|.	c #E2E2E2",
"1.	c #D78A64",
"2.	c #F5DAB9",
"3.	c #F1C893",
"4.	c #F2CB96",
"5.	c #F3CE99",
"6.	c #F3CD98",
"7.	c #F2C995",
"8.	c #F0C691",
"9.	c #F0C18C",
"0.	c #EEBC85",
"a.	c #ECB67E",
"b.	c #EBB079",
"c.	c #E9AA72",
"d.	c #E8A46B",
"e.	c #E79E65",
"f.	c #E7975E",
"g.	c #E89158",
"h.	c #E88A52",
"i.	c #E9834C",
"j.	c #E97C46",
"k.	c #D07344",
"l.	c #A5A5A5",
"m.	c #DFDFDF",
"n.	c #E0E0E0",
"o.	c #D68662",
"p.	c #F4D7B8",
"q.	c #F0C18D",
"r.	c #EFC28B",
"s.	c #F0C28B",
"t.	c #F0C088",
"u.	c #EFBE85",
"v.	c #EDBB80",
"w.	c #ECB67B",
"x.	c #EBB175",
"y.	c #E9AB6E",
"z.	c #E8A568",
"A.	c #E69E5F",
"B.	c #E49655",
"C.	c #E38F4E",
"D.	c #E48746",
"E.	c #E47F3E",
"F.	c #E67737",
"G.	c #E67031",
"H.	c #E7692C",
"I.	c #C85D2C",
"J.	c #A3A3A3",
"K.	c #DCDCDC",
"L.	c #DDDDDD",
"M.	c #D17752",
"N.	c #F3CFAB",
"O.	c #EBB176",
"P.	c #EBAF72",
"Q.	c #EAAE6E",
"R.	c #E9AB69",
"S.	c #E9A764",
"T.	c #E7A35F",
"U.	c #E69F5A",
"V.	c #E59953",
"W.	c #E3944C",
"X.	c #E28F47",
"Y.	c #E18A42",
"Z.	c #E1853E",
"`.	c #E27F3A",
" +	c #E37A36",
".+	c #E47532",
"++	c #E56F2E",
"@+	c #E6692A",
"#+	c #E86426",
"$+	c #C85829",
"%+	c #A0A0A0",
"&+	c #D9D9D9",
"*+	c #DADADA",
"=+	c #C45227",
"-+	c #EEBC91",
";+	c #E3934B",
">+	c #E4954C",
",+	c #E4954D",
"'+	c #E4944C",
")+	c #E3924A",
"!+	c #E29048",
"~+	c #E28D45",
"{+	c #E1863F",
"]+	c #E2823C",
"^+	c #E37D38",
"/+	c #E47835",
"(+	c #E47332",
"_+	c #E56E2E",
":+	c #E76427",
"<+	c #E85E23",
"[+	c #C65227",
"}+	c #9E9E9E",
"|+	c #D6D6D6",
"1+	c #D6D5D4",
"2+	c #C44B24",
"3+	c #ECB387",
"4+	c #E1873F",
"5+	c #E18840",
"6+	c #E18941",
"7+	c #E1843D",
"8+	c #E37C37",
"9+	c #E47432",
"0+	c #E5702F",
"a+	c #E66B2C",
"b+	c #E76729",
"c+	c #E86225",
"d+	c #E95D22",
"e+	c #EA581E",
"f+	c #C54A24",
"g+	c #9B9B9B",
"h+	c #D4D4D4",
"i+	c #D3CCCA",
"j+	c #C34D29",
"k+	c #EEA87D",
"l+	c #E37B37",
"m+	c #E37A37",
"n+	c #E37936",
"o+	c #E47633",
"p+	c #E57331",
"q+	c #E57030",
"r+	c #E66D2D",
"s+	c #E66A2B",
"t+	c #E76628",
"u+	c #E95E22",
"v+	c #E9591F",
"w+	c #EA551C",
"x+	c #EB5019",
"y+	c #C0421D",
"z+	c #989898",
"A+	c #D0C2BF",
"B+	c #C64F2D",
"C+	c #EE9D72",
"D+	c #E66E2E",
"E+	c #E66E2D",
"F+	c #E66C2D",
"G+	c #E6692B",
"H+	c #E76527",
"I+	c #E85F23",
"J+	c #E95B21",
"K+	c #EA541C",
"L+	c #EC4F18",
"M+	c #EB4F18",
"N+	c #C13F1B",
"O+	c #969696",
"P+	c #CECECE",
"Q+	c #CCB7B3",
"R+	c #C75133",
"S+	c #EF9066",
"T+	c #E86024",
"U+	c #E86124",
"V+	c #E85F24",
"W+	c #E95B20",
"X+	c #EA591F",
"Y+	c #EA561D",
"Z+	c #EB531B",
"`+	c #EB5119",
" @	c #E94D17",
".@	c #C13E1F",
"+@	c #999999",
"@@	c #C09087",
"#@	c #CB4A2A",
"$@	c #ED6330",
"%@	c #EB541B",
"&@	c #EB531A",
"*@	c #EB511A",
"=@	c #E44B17",
"-@	c #C4452A",
";@	c #C3C2C2",
">@	c #A07972",
",@	c #BB2B12",
"'@	c #CF7160",
")@	c #E8E7E6",
"!@	c #DDDCDB",
"~@	c #D7D7D6",
"{@	c #F2F1F0",
"                                                ",
"          . + + + + + + + @ + # $               ",
"% & & & & * = = = = = = = - ; > , '             ",
"& ) ! ! ! ~ { { { { { { { ] ^ { / & (           ",
"_ : < [ [ } | | | | | | | 1 ^ ^ ; 2 3 4 ,       ",
"3 5 : : : 6 7 7 7 7 7 7 7 8 9 0 ] a b : 4 c     ",
"d { e e e f g g g g g g g g g g g g f e 4 h     ",
"i | { { { j k k k k k k k k k k k k j { l m     ",
"n ; o o o p q q q q q q q q q q q q p o d (     ",
"- k ; ; ; r s s s s s s s s s s s s r ; d t     ",
"u v w x y z y y y y y y y y y A A A B A C D E F ",
"G H s I J K L M N O P Q R S T U V W X Y Z `  ...",
"+.@.#.$.%.&.*.=.-.;.>.,.'.).!.~.{.].^./.(._.:.<.",
"[.}.|.1.2.3.4.5.6.7.8.9.0.a.b.c.d.e.f.g.h.i.j.k.",
"l.m.n.o.p.q.r.s.t.u.v.w.x.y.z.A.B.C.D.E.F.G.H.I.",
"J.K.L.M.N.O.P.Q.R.S.T.U.V.W.X.Y.Z.`. +.+++@+#+$+",
"%+&+*+=+-+;+>+,+,+'+)+!+~+Y.{+]+^+/+(+_+@+:+<+[+",
"}+|+1+2+3+4+5+6+5+5+{+7+]+`.8+/+9+0+a+b+c+d+e+f+",
"g+h+i+j+k+ +l+l+l+m+n+/+o+p+q+r+s+t+c+u+v+w+x+y+",
"z+/ A+B+C+r+D+D+D+E+F+a+G+b+H+c+I+J+e+K+x+L+M+N+",
"O+P+Q+R+S+T+U+U+U+T+V+<+d+W+X+Y+Z+`+L+L+L+L+ @.@",
"+@l @@#@$@Z+Z+%@%@Z+&@*@x+L+L+L+L+L+L+L+L+L+=@-@",
";@>@,@,@,@,@,@,@,@,@,@,@,@,@,@,@,@,@,@,@,@,@,@'@",
"    )@!@~@~@~@~@~@~@~@~@~@~@~@~@~@~@~@~@!@)@{@{@"};
