/* XPM */
static char * td5mapeditor_exp_xpm[] = {
"32 32 290 2",
"  	c None",
". 	c #171717",
"+ 	c #191919",
"@ 	c #1A1A1A",
"# 	c #2C2C2C",
"$ 	c #BEBEBE",
"% 	c #CECECE",
"& 	c #2D2D2D",
"* 	c #D0D0D0",
"= 	c #E1E1E1",
"- 	c #E3E3E3",
"; 	c #CFCFCF",
"> 	c #C7C7C7",
", 	c #CDCDCD",
"' 	c #2E2E2E",
") 	c #DBDBDB",
"! 	c #9F9F9F",
"~ 	c #C1C1C1",
"{ 	c #DADADB",
"] 	c #9595A0",
"^ 	c #313131",
"/ 	c #BCBCBC",
"( 	c #E2E2E3",
"_ 	c #CBCBE3",
": 	c #7D7DF1",
"< 	c #CECEE7",
"[ 	c #D2D2D2",
"} 	c #1B1B1B",
"| 	c #C7C7E3",
"1 	c #5454D5",
"2 	c #6464FA",
"3 	c #7B7BFA",
"4 	c #D9D9E5",
"5 	c #181818",
"6 	c #ACACAC",
"7 	c #CCCCCC",
"8 	c #C7C7E8",
"9 	c #4E4EF4",
"0 	c #3535C4",
"a 	c #5959E4",
"b 	c #6969E8",
"c 	c #D7D7E3",
"d 	c #070707",
"e 	c #303030",
"f 	c #4F4FFA",
"g 	c #3030E9",
"h 	c #0F0F2F",
"i 	c #212130",
"j 	c #343441",
"k 	c #C0C0C2",
"l 	c #2F2F2F",
"m 	c #E52A50",
"n 	c #BBBBBB",
"o 	c #C1C1D0",
"p 	c #4B4BE3",
"q 	c #3030E8",
"r 	c #2D2DD5",
"s 	c #303041",
"t 	c #3F3F3F",
"u 	c #1C1C1C",
"v 	c #F21744",
"w 	c #1D1D29",
"x 	c #2C2C2D",
"y 	c #2F2F30",
"z 	c #212133",
"A 	c #1E1E31",
"B 	c #1F1F30",
"C 	c #41414D",
"D 	c #2E2E94",
"E 	c #434343",
"F 	c #323232",
"G 	c #2E2E39",
"H 	c #1D1D1F",
"I 	c #424242",
"J 	c #BABABA",
"K 	c #ADADAD",
"L 	c #2E2E45",
"M 	c #06066C",
"N 	c #2C2C37",
"O 	c #33333F",
"P 	c #161688",
"Q 	c #191931",
"R 	c #32323F",
"S 	c #2D2DA9",
"T 	c #2B2B9E",
"U 	c #454551",
"V 	c #ABABAB",
"W 	c #414141",
"X 	c #2E2E48",
"Y 	c #070785",
"Z 	c #1B1B2A",
"` 	c #1F1F2C",
" .	c #272799",
"..	c #202039",
"+.	c #464646",
"@.	c #333333",
"#.	c #313132",
"$.	c #1D1D2A",
"%.	c #191926",
"&.	c #060607",
"*.	c #060606",
"=.	c #2A2A2A",
"-.	c #1E1E9D",
";.	c #2626B0",
">.	c #1F1F2D",
",.	c #1F1F2A",
"'.	c #2B2B9D",
").	c #060611",
"!.	c #363650",
"~.	c #2D2DB9",
"{.	c #2F2FBB",
"].	c #21213B",
"^.	c #19191A",
"/.	c #4141BF",
"(.	c #3333CA",
"_.	c #302FAD",
":.	c #433946",
"<.	c #554A4B",
"[.	c #524849",
"}.	c #20202E",
"|.	c #2E2E3B",
"1.	c #252527",
"2.	c #21212D",
"3.	c #22223D",
"4.	c #3131BD",
"5.	c #3333CC",
"6.	c #4339C4",
"7.	c #C0697B",
"8.	c #322835",
"9.	c #22212D",
"0.	c #2F2528",
"a.	c #332735",
"b.	c #B35C6E",
"c.	c #312735",
"d.	c #302633",
"e.	c #B15B5F",
"f.	c #423838",
"g.	c #29299A",
"h.	c #2626A3",
"i.	c #09097A",
"j.	c #111111",
"k.	c #70707C",
"l.	c #3C3CAF",
"m.	c #3030BA",
"n.	c #3434CC",
"o.	c #3E3ECB",
"p.	c #4140CA",
"q.	c #A096BC",
"r.	c #3C3BB9",
"s.	c #2F2FB9",
"t.	c #3E34B3",
"u.	c #B65F87",
"v.	c #4135B4",
"w.	c #4339C2",
"x.	c #2F2DAA",
"y.	c #322740",
"z.	c #2E2E30",
"A.	c #20202C",
"B.	c #AFAFB0",
"C.	c #86869E",
"D.	c #4141C2",
"E.	c #3434CB",
"F.	c #9191C4",
"G.	c #3F3FCB",
"H.	c #3534CB",
"I.	c #4239C6",
"J.	c #3734CB",
"K.	c #523EC1",
"L.	c #BC6499",
"M.	c #4238C4",
"N.	c #2E2EAE",
"O.	c #34344C",
"P.	c #8888A0",
"Q.	c #3535CB",
"R.	c #3D3DCB",
"S.	c #3030CC",
"T.	c #443AC6",
"U.	c #C76F98",
"V.	c #533FC0",
"W.	c #4238C5",
"X.	c #322FAD",
"Y.	c #BDBDBD",
"Z.	c #D0D0D2",
"`.	c #808099",
" +	c #4040C1",
".+	c #3030CB",
"++	c #1111CC",
"@+	c #4848CA",
"#+	c #9292C4",
"$+	c #3B3ACA",
"%+	c #9D93BE",
"&+	c #4A48CA",
"*+	c #BA6399",
"=+	c #513DBF",
"-+	c #B15A7C",
";+	c #2C2235",
">+	c #1B1B2E",
",+	c #1F1F2E",
"'+	c #262627",
")+	c #1C1C28",
"!+	c #B8B8B8",
"~+	c #939395",
"{+	c #787892",
"]+	c #3535C2",
"^+	c #2E2ECC",
"/+	c #1A1ACB",
"(+	c #2424CA",
"_+	c #8E8EC4",
":+	c #3F3ECA",
"<+	c #4238C6",
"[+	c #2E2CCB",
"}+	c #180DC5",
"|+	c #0302BA",
"1+	c #1010B4",
"2+	c #2E2EAF",
"3+	c #1B1B8C",
"4+	c #71717C",
"5+	c #767682",
"6+	c #0D0D73",
"7+	c #040412",
"8+	c #8A8A97",
"9+	c #1F1F9F",
"0+	c #2C2CC3",
"a+	c #3939CB",
"b+	c #8B8BC4",
"c+	c #3737CB",
"d+	c #3636C7",
"e+	c #1414C6",
"f+	c #0C0CC6",
"g+	c #1717C1",
"h+	c #78789A",
"i+	c #868695",
"j+	c #848490",
"k+	c #959596",
"l+	c #BFBFC1",
"m+	c #BEBEC1",
"n+	c #6D6D91",
"o+	c #1D1D9E",
"p+	c #3636C2",
"q+	c #2C2CC7",
"r+	c #0E0ECB",
"s+	c #1414CB",
"t+	c #0C0CCC",
"u+	c #3333CB",
"v+	c #1919CB",
"w+	c #0C0CC7",
"x+	c #3C3CC1",
"y+	c #828294",
"z+	c #828295",
"A+	c #8A8A9B",
"B+	c #D2D2D4",
"C+	c #DADADA",
"D+	c #D8D8D8",
"E+	c #CBCBCB",
"F+	c #191925",
"G+	c #171780",
"H+	c #66668A",
"I+	c #71718D",
"J+	c #1414A1",
"K+	c #3535C7",
"L+	c #8787C4",
"M+	c #0F0FCB",
"N+	c #8B8BBA",
"O+	c #26269E",
"P+	c #7C7C95",
"Q+	c #959597",
"R+	c #D3D3D3",
"S+	c #E2E2E2",
"T+	c #050520",
"U+	c #16167D",
"V+	c #66667E",
"W+	c #191999",
"X+	c #2C2CC2",
"Y+	c #3535C6",
"Z+	c #1010C2",
"`+	c #19199F",
" @	c #868694",
".@	c #8C8C97",
"+@	c #D2D2D3",
"@@	c #050512",
"#@	c #19191D",
"$@	c #64647E",
"%@	c #0F0F8F",
"&@	c #666683",
"*@	c #888895",
"=@	c #E0E0E0",
"-@	c #050514",
";@	c #040413",
">@	c #232324",
",@	c #B7B7B7",
"                            . + + +                             ",
"                    @ @ @ # $ % % $ & @ @ @                     ",
"                @ & $ % % * = - - = ; > , $ & @                 ",
"              ' $ * = - - - - - - - ) ! ) = * $ '               ",
"          @ & ~ = - - - - - - - - - { ] { - - = ~ ^             ",
"        @ / * = - - - - - - - - - ( _ : < ( - - = [ , }         ",
"        & * - - - - - - - - - - ( | 1 2 3 4 - - - - * &         ",
"      5 6 7 % % % % % % * = - ( 8 9 0 a b c - - - - = ~ '       ",
"    d } ' e e e e e e ' ' * ( 8 f g h i j k = - - - - = $ @     ",
"    l m m m m m m m m m # n o p q r s m m t * - - - - - * &     ",
"  u m v v v v v v v v m w x y z A B m v m e % - - - - - = $ @   ",
"  . m m v v v v m m m C D m m m m E m v m ' n % % % % % % n 5   ",
"  + # F m v v m G H I m m v v v v m v v m e ' e e e e e e ' u   ",
"+ J K t m v m L M N m v v v O O m v v m E m m m m m m m m m m } ",
"+ / t m v v m P Q m v v v R S T U m v m E m v v v v v v v v m + ",
". V W m v m X Y Z m v v v `  ...m v m E m v v +.@.@.@.@.#.$.%.&.",
"*.=.m v v m -.;.>.m v v v #.,.#.m v m @.m v v m m m m m m '.P ).",
"*.' m v m !.~.{.].m v v v v v v v v m E m v v v v v v v v m m ^.",
"+ m m m m /.(.(._.:.m m m m m <.m m [.m m m m m O }.|.m v v m } ",
"  u 1.2.3.4.5.5.6.7.8.}.9.0.a.b.c.d.e.f.@.@.^ ,.g.h.i.C m v m } ",
"  j.k.l.m.(.n.o.p.q.r.s.t.u.v.w.v.x.y.m m m m z.A.}.|.m v v m + ",
"  @ B.C.D.E.o.F.G.o.n.5.H.I.J.K.L.M.N.O.m v v v v v v v v 7.# d ",
"    & k P.D.Q.R.S.5.n.o.n.5.T.U.V.J.W.X.:.m m m m m m m m # d   ",
"    @ Y.Z.`. +.+++S.@+#+o.5.$+%+&+T.*+=+-+;+>+,+w '+'+)+^.d     ",
"      ' !+~+{+]+^+R.#+@+n.S./+(+_+:+<+[+}+|+1+2+3+4+5+6+7+      ",
"        & ~ 8+9+0+E.R.S.^+a+b+c+a+E.d+e+f+g+h+i+j+k+l+%.        ",
"        @ / m+n+o+p+q+r+s+t+u+v+w+x+{+y+z+A+B+C+D+E+, }         ",
"          @ F+G+H+I+J+K+L+M+e+N+O+P+Q+R+C+) S+= ~ ^             ",
"              T+U+V+W+X+Y+Z+`+ @.@+@) S+- = * $ '               ",
"                @@#@$@%@%@&@*@+@) =@* % % $ & @                 ",
"                      -@;@>@,@, % $ & @ @ @                     ",
"                            + + + +                             "};
