/* XPM */
static const char * td5mapeditor_xpm[] = {
"32 32 358 2",
"  	c None",
". 	c #545454",
"+ 	c #313131",
"@ 	c #292929",
"# 	c #2C2C2C",
"$ 	c #333333",
"% 	c #666666",
"& 	c #303030",
"* 	c #535353",
"= 	c #454545",
"- 	c #515151",
"; 	c #656565",
"> 	c #9C9C9C",
", 	c #ADADAD",
"' 	c #AEAEAE",
") 	c #B0B0B0",
"! 	c #787878",
"~ 	c #AAAAAA",
"{ 	c #9B9B9B",
"] 	c #444444",
"^ 	c #3E3E3E",
"/ 	c #757575",
"( 	c #767676",
"_ 	c #9F9F9F",
": 	c #B1B1B1",
"< 	c #B9B9B9",
"[ 	c #D1D1D1",
"} 	c #D8D8D8",
"| 	c #D4D4D4",
"1 	c #838383",
"2 	c #D6D7D7",
"3 	c #727272",
"4 	c #676767",
"5 	c #A7A7A7",
"6 	c #D0D0D0",
"7 	c #D9D9D9",
"8 	c #DCDCDC",
"9 	c #7F7F7F",
"0 	c #D4D5D5",
"a 	c #4E4E4E",
"b 	c #6B6B6B",
"c 	c #B7B7B7",
"d 	c #DBDBDB",
"e 	c #D2D2D2",
"f 	c #636565",
"g 	c #D9DCDC",
"h 	c #DDDEDE",
"i 	c #6E6E6E",
"j 	c #D2D3D3",
"k 	c #5F6363",
"l 	c #EEEFEF",
"m 	c #DFE3E3",
"n 	c #6D6D6D",
"o 	c #939393",
"p 	c #C0C0C0",
"q 	c #CBCBCB",
"r 	c #CDCDCD",
"s 	c #CECECE",
"t 	c #DBDCDB",
"u 	c #D7D9D8",
"v 	c #686B6B",
"w 	c #EDEEEE",
"x 	c #B7BCBC",
"y 	c #CFCFCF",
"z 	c #A0A0A0",
"A 	c #555555",
"B 	c #060606",
"C 	c #151515",
"D 	c #1B1B1B",
"E 	c #212121",
"F 	c #252525",
"G 	c #242424",
"H 	c #222222",
"I 	c #CACBCA",
"J 	c #B1B6B5",
"K 	c #6E7170",
"L 	c #E8E8E8",
"M 	c #7E8481",
"N 	c #2B2C2B",
"O 	c #B8B8B8",
"P 	c #686868",
"Q 	c #050505",
"R 	c #DEDEDE",
"S 	c #EDEDED",
"T 	c #DDDDDD",
"U 	c #222323",
"V 	c #BBC2C2",
"W 	c #B9C0C4",
"X 	c #828282",
"Y 	c #C9C1BE",
"Z 	c #2C2B2B",
"` 	c #A6A6A6",
" .	c #141414",
"..	c #FEFEFE",
"+.	c #FFFFFF",
"@.	c #202020",
"#.	c #9AA2A0",
"$.	c #D3D6DB",
"%.	c #66696C",
"&.	c #976F70",
"*.	c #312D2D",
"=.	c #EFEFEF",
"-.	c #EEEEEE",
";.	c #171717",
">.	c #262626",
",.	c #1C1C1D",
"'.	c #201D1D",
").	c #DFDEDE",
"!.	c #DFDFDF",
"~.	c #505050",
"{.	c #080808",
"].	c #1F1F1F",
"^.	c #181818",
"/.	c #353535",
"(.	c #F0F0F0",
"_.	c #282828",
":.	c #232323",
"<.	c #363636",
"[.	c #323232",
"}.	c #B2B2B2",
"|.	c #CCCCCC",
"1.	c #ABABAB",
"2.	c #5A5A5A",
"3.	c #2B2B2B",
"4.	c #959595",
"5.	c #B6B6B6",
"6.	c #2E2E2E",
"7.	c #A5A5A5",
"8.	c #FCFCFC",
"9.	c #1D1D1D",
"0.	c #ACACAC",
"a.	c #BDBDBD",
"b.	c #E0E0E0",
"c.	c #322F2F",
"d.	c #333030",
"e.	c #161616",
"f.	c #B08C8A",
"g.	c #B39490",
"h.	c #413F3E",
"i.	c #B3B3B3",
"j.	c #252323",
"k.	c #BDA9A7",
"l.	c #302D2C",
"m.	c #272727",
"n.	c #C6C8C8",
"o.	c #282827",
"p.	c #242322",
"q.	c #393939",
"r.	c #BDC2BF",
"s.	c #CDD4D1",
"t.	c #323131",
"u.	c #ECECEC",
"v.	c #FDFDFD",
"w.	c #323234",
"x.	c #D2D9DA",
"y.	c #D1D5E0",
"z.	c #BBB9B4",
"A.	c #383737",
"B.	c #DEDEDF",
"C.	c #3A3A3E",
"D.	c #292726",
"E.	c #1C1A1A",
"F.	c #342D2C",
"G.	c #0B0B0B",
"H.	c #333335",
"I.	c #C7C9DB",
"J.	c #A6ADD6",
"K.	c #6671B0",
"L.	c #646F6C",
"M.	c #5F6A62",
"N.	c #272927",
"O.	c #242526",
"P.	c #202022",
"Q.	c #1B1C21",
"R.	c #2A2B2E",
"S.	c #5B5D86",
"T.	c #21222C",
"U.	c #211D1C",
"V.	c #090808",
"W.	c #1A1817",
"X.	c #391C18",
"Y.	c #533733",
"Z.	c #C2665A",
"`.	c #433B3A",
" +	c #4F4F4F",
".+	c #CCCFCC",
"++	c #C2C9C4",
"@+	c #595B6D",
"#+	c #636A89",
"$+	c #C9CECC",
"%+	c #B5BCBB",
"&+	c #A2AFA8",
"*+	c #BFC5DB",
"=+	c #928FA9",
"-+	c #5B6399",
";+	c #C8D2E1",
">+	c #7E84D4",
",+	c #5A6BC3",
"'+	c #B07870",
")+	c #2A2223",
"!+	c #CFCECF",
"~+	c #C7C8C7",
"{+	c #8A8C8A",
"]+	c #909590",
"^+	c #E2E5E5",
"/+	c #D2D8D4",
"(+	c #AEB6BB",
"_+	c #D7DEEA",
":+	c #9B9FBB",
"<+	c #7076AB",
"[+	c #E0AEA3",
"}+	c #C5C9EA",
"|+	c #959FC6",
"1+	c #99A8BB",
"2+	c #BDC6EC",
"3+	c #CAD3D3",
"4+	c #8A717F",
"5+	c #393839",
"6+	c #9E9E9E",
"7+	c #CECFCE",
"8+	c #D6DBD5",
"9+	c #C2CAC2",
"0+	c #C4C8C4",
"a+	c #B0ACB5",
"b+	c #E1BEB8",
"c+	c #8D8CBD",
"d+	c #CC988D",
"e+	c #BAC1E2",
"f+	c #ACB2B1",
"g+	c #C8CED1",
"h+	c #A2AFE4",
"i+	c #C5D0DE",
"j+	c #7382C1",
"k+	c #B7C4E1",
"l+	c #D0DDD5",
"m+	c #A3B4B7",
"n+	c #31343B",
"o+	c #2A2A2A",
"p+	c #0A0A0A",
"q+	c #BEBFBE",
"r+	c #BEC2BD",
"s+	c #DAE0DF",
"t+	c #B6B6D8",
"u+	c #864A58",
"v+	c #A8A3C8",
"w+	c #9D9CB5",
"x+	c #9FA29B",
"y+	c #B1B7E2",
"z+	c #B69EA3",
"A+	c #787E9F",
"B+	c #9196C3",
"C+	c #8491D2",
"D+	c #5A66B8",
"E+	c #8292C7",
"F+	c #8D97D1",
"G+	c #323E98",
"H+	c #1D1F2C",
"I+	c #1B1B22",
"J+	c #202226",
"K+	c #1E1B1F",
"L+	c #262424",
"M+	c #252626",
"N+	c #1A1B1A",
"O+	c #212122",
"P+	c #5A5B5B",
"Q+	c #383838",
"R+	c #D2D2D3",
"S+	c #A2A8AA",
"T+	c #7E8694",
"U+	c #C0BFBF",
"V+	c #A69699",
"W+	c #CCA49A",
"X+	c #E4BFB9",
"Y+	c #6255A2",
"Z+	c #8C8DC6",
"`+	c #A9B3CD",
" @	c #96A3BA",
".@	c #4559B6",
"+@	c #A5B5E7",
"@@	c #555C9D",
"#@	c #7E88D9",
"$@	c #95A2E3",
"%@	c #5F6CBE",
"&@	c #464AAE",
"*@	c #8FA0DE",
"=@	c #72557E",
"-@	c #D3B5B2",
";@	c #C7D3CD",
">@	c #445242",
",@	c #585B5A",
"'@	c #D6D6D7",
")@	c #AEB3AD",
"!@	c #82877C",
"~@	c #CABEB7",
"{@	c #BA8585",
"]@	c #DFBBB0",
"^@	c #7B4D7E",
"/@	c #8B97D5",
"(@	c #6876CA",
"_@	c #717BDA",
":@	c #525DA8",
"<@	c #9DACDA",
"[@	c #6072C2",
"}@	c #5B6BB6",
"|@	c #A4AFDF",
"1@	c #5A64BF",
"2@	c #8C9BD9",
"3@	c #9AA095",
"4@	c #717C73",
"5@	c #707779",
"6@	c #909290",
"7@	c #696969",
"8@	c #D3D4D3",
"9@	c #BFC0BF",
"0@	c #989994",
"a@	c #BCB9AB",
"b@	c #E0CBCB",
"c@	c #BE7B76",
"d@	c #9F6D9F",
"e@	c #9193C6",
"f@	c #5257A2",
"g@	c #606EAC",
"h@	c #95A3CD",
"i@	c #8287BE",
"j@	c #717FBB",
"k@	c #797E75",
"l@	c #6E7471",
"m@	c #CCCECC",
"n@	c #DADADA",
"o@	c #D5D6D4",
"p@	c #BEC1B6",
"q@	c #B0B7A7",
"r@	c #7D7C78",
"s@	c #E1DBDC",
"t@	c #D0A89C",
"u@	c #C99BA1",
"v@	c #7986CD",
"w@	c #6270AD",
"x@	c #9EADA3",
"y@	c #8E9C94",
"z@	c #CED0CD",
"A@	c #C9CAC9",
"B@	c #D9D9D8",
"C@	c #CCCECB",
"D@	c #7B8370",
"E@	c #B9C3B4",
"F@	c #A59F8E",
"G@	c #A9B3A1",
"H@	c #B4C0BD",
"I@	c #D3D5D3",
"J@	c #D1D2D0",
"K@	c #D6D8D7",
"L@	c #D0D9DA",
"M@	c #D5D7D5",
"N@	c #CECFCF",
"O@	c #AFAFAF",
"P@	c #AFAFB0",
"Q@	c #2F2F2F",
"                      . + @ # $ % & @ & *                       ",
"                  = - ; > , ' ) ! ~ , { ; - ] ^                 ",
"              / ( _ : < [ } } | 1 2 } [ < : _ 3 (               ",
"          ^ - 4 5 6 7 7 8 8 8 | 9 0 8 8 7 7 6 5 4 - ^           ",
"        a b _ c [ d 8 8 8 8 8 e f g h 8 8 8 d [ c _ b a         ",
"        i 5 6 7 8 8 8 8 8 8 8 j k l m 8 8 8 8 8 7 6 5 n         ",
"      a o p q r r r r r r s t u v w x q r r s d 8 d y z A       ",
"  B C D E F F F F F F F G H I J K L M N F G H s 8 8 7 O P (     ",
"Q G R S S S S S S S S S T U V W X Y Z T S T G r 8 8 d [ ` (     ",
" .R ..+.+.+.+.+.+.+.+...R @.#.$.%.&.*.=.+.S F r 8 8 8 d y _ =   ",
" .T S S -...+...-.S S R F ;.H >.,.'.).....!.+ s 8 8 8 8 7 ) ~.  ",
"{.].G ^./.(.+.=._.:.^.F >.R S S R <.=.+.=.[.}.|.r r r r q 1.2.* ",
"3.4.5.H R ....!.6.7.+ R -.8.-.-.8.(.....!.>.G F F F F F F :.9.>.",
"@ 0.a.$ =.+.=.[.` ^ b.....b.c.d.b...+.=.<.R S S S S S S S S T e.",
"# z 6.!.....!.H H !...+.=.c.f.g.h.(...!.<.=...-.S S S S S S T  .",
"# 4.+ =.+.=.$ i.G S +.+.S j.k.l.!...=.<.!...(.<.m.m.m.m.>.;.C Q ",
"G H !.....!.+ n.>.S +.+.=.o.p.o.=.+.S m.S +...-.S S S S R F C Q ",
"q.@ =.+.=.$ r.s.t.!...+...-.u.b.v...!.<.=.+.+...-.S -.....-.T  .",
";.s u.S R w.x.y.z.A.R S S S B.C.B.R $ y u.S S R D.E.F.b...+.S e.",
"G.D :.F H.I.J.K.L.M.N.O.P.Q.R.S.T.U.V.F m.m.>.W.X.Y.Z.`.(.+.S e.",
" +2.1..+b.++@+#+$+%+&+*+=+-+;+>+,+'+)+!+u.S R F W.E.F.b.....R  .",
"  ~.) ~+{+]+^+/+(+_+:+<+[+}+|+1+2+3+4+5+b.....-.S S -.....!.G Q ",
"  ] 6+7+8+9+0+a+b+c+d+e+f+g+h+i+j+k+l+m+n+B.S S S S S S R o+p+  ",
"  ^ 3 ` q+r+s+t+u+v+w+x+y+z+A+B+C+D+E+F+G+H+I+J+K+L+M+N+O+P+Q+  ",
"    ( P c R+S+T+U+V+W+X+Y+Z+`+ @.@+@@@#@$@%@&@*@=@-@;@>@,@/     ",
"      - _ y '@e )@!@~@{@]@^@/@(@_@:@<@[@}@|@1@2@3@4@5@6@-       ",
"      ^ 7@5 6 7 } 8@9@0@a@b@c@d@e@f@g@h@i@j@k@l@m@~+z P ^       ",
"         +b z O [ d n@o@p@q@r@s@t@u@v@w@x@y@z@A@O z b  +        ",
"          ^ - 4 5 6 7 n@7 B@C@D@E@F@G@H@I@8@y 5 4 - ^           ",
"              ( 3 _ : < [ 7 } J@K@L@M@N@< : _ 3 (               ",
"                ^ ] - ; > ' O@O@O@P@' > ; - ] ^                 ",
"                      . + @ # Q@6.# @ + .                       "};
