/* XPM */
static const char * toolscurr_xpm[] = {
"24 24 151 2",
"  	c None",
". 	c #C9C9C9",
"+ 	c #C7C7C7",
"@ 	c #D2D1D1",
"# 	c #EAE9E9",
"$ 	c #C5C5C5",
"% 	c #FAFAFA",
"& 	c #F6F6F6",
"* 	c #E3E3E3",
"= 	c #DCDCDC",
"- 	c #C9C9C8",
"; 	c #E1E0E0",
"> 	c #C4C4C4",
", 	c #F8F8F8",
"' 	c #F0F0F0",
") 	c #F1F1F1",
"! 	c #EFEFEF",
"~ 	c #E4E5E5",
"{ 	c #CBCBCC",
"] 	c #DADADA",
"^ 	c #DBDADA",
"/ 	c #C3C3C3",
"( 	c #EDEDED",
"_ 	c #E1E1E2",
": 	c #C6C6C6",
"< 	c #F9F9F9",
"[ 	c #EAEAEA",
"} 	c #D5D5D5",
"| 	c #CBCBCB",
"1 	c #D8D7D7",
"2 	c #C1C1C1",
"3 	c #F7F7F7",
"4 	c #EEEEEE",
"5 	c #E1E1E1",
"6 	c #C1C1C2",
"7 	c #FCFDFD",
"8 	c #CFCFCF",
"9 	c #DFDFDE",
"0 	c #C0C0C0",
"a 	c #E3E3E4",
"b 	c #CACACA",
"c 	c #B6B7B7",
"d 	c #B2B3B4",
"e 	c #B4B4B5",
"f 	c #BDBEBE",
"g 	c #BEBEBE",
"h 	c #F4F4F4",
"i 	c #ECECEC",
"j 	c #E8E8E9",
"k 	c #DEDFDF",
"l 	c #D6D7D7",
"m 	c #D2D2D3",
"n 	c #D3D4D4",
"o 	c #D9DADA",
"p 	c #DDDDDD",
"q 	c #BABABA",
"r 	c #BDBDBD",
"s 	c #F3F3F3",
"t 	c #EBEBEB",
"u 	c #E7E7E7",
"v 	c #E0E1E1",
"w 	c #DDDDDE",
"x 	c #DEDEDF",
"y 	c #BCBCBC",
"z 	c #F2F2F2",
"A 	c #E9E9E9",
"B 	c #BABAB9",
"C 	c #E8E8E8",
"D 	c #F1F0F0",
"E 	c #B8B9B8",
"F 	c #B9B9B9",
"G 	c #B8B8B7",
"H 	c #B7B7B7",
"I 	c #E6E6E6",
"J 	c #EDEDEE",
"K 	c #B7B6B6",
"L 	c #B6B6B6",
"M 	c #E5E5E5",
"N 	c #E6E5E6",
"O 	c #B6B6B5",
"P 	c #B5B5B5",
"Q 	c #E4E4E4",
"R 	c #A82C10",
"S 	c #A92C11",
"T 	c #B3B3B3",
"U 	c #E3E4E4",
"V 	c #E0DBDA",
"W 	c #A62A0F",
"X 	c #D13F27",
"Y 	c #B2B2B2",
"Z 	c #E2E2E2",
"` 	c #E1E2E1",
" .	c #A3280E",
"..	c #A4280E",
"+.	c #CC3E24",
"@.	c #A3270E",
"#.	c #A3270D",
"$.	c #B0B0B0",
"%.	c #E2E2E1",
"&.	c #A0250D",
"*.	c #D44028",
"=.	c #CD3F25",
"-.	c #C63C22",
";.	c #BF3A1F",
">.	c #B8371B",
",.	c #A0250C",
"'.	c #AFAFAF",
").	c #DFDFDF",
"!.	c #E1E1E0",
"~.	c #9E230B",
"{.	c #9E220B",
"].	c #9D230B",
"^.	c #AEAEAE",
"/.	c #DEDEDE",
"(.	c #E0E1E0",
"_.	c #E0E0E0",
":.	c #E0DFDF",
"<.	c #9B210A",
"[.	c #B8381C",
"}.	c #ACACAC",
"|.	c #DFDEDF",
"1.	c #991E09",
"2.	c #981E08",
"3.	c #ABABAB",
"4.	c #DDDEDE",
"5.	c #DEDEDD",
"6.	c #DDDEDD",
"7.	c #DEDDDD",
"8.	c #ADADAC",
"9.	c #AAAAAA",
"0.	c #DBDBDB",
"a.	c #DCDCDD",
"b.	c #DDDCDD",
"c.	c #0E4DD1",
"d.	c #0E4CD1",
"e.	c #0E4CD2",
"f.	c #0D4BD1",
"g.	c #0D3ACA",
"h.	c #2F93D9",
"i.	c #2B8BD9",
"j.	c #237CD7",
"k.	c #1B6DD6",
"l.	c #135ED5",
"m.	c #0D38CA",
"n.	c #E1E0DF",
"o.	c #E0DFDE",
"p.	c #DFDEDD",
"q.	c #0C26C4",
"r.	c #0C25C4",
"s.	c #0C25C3",
"t.	c #0C24C3",
". + + + + + + + + + + + @ #                     ",
"$ % % % % % % % % % & * = - ;                   ",
"> , ' ' ' ' ' ' ) ! ~ { ' ] + ^                 ",
"/ , ! ! ! ! ! ! ) ( _ : < [ } | 1               ",
"2 3 4 4 4 4 4 4 ' ( 5 6 7 3 * 8 . 9             ",
"0 & ( ( ( ( ( ( ! ( a b c d e f | /             ",
"g h i i i i i i i ! j k l m n o p q             ",
"r s t t t t t t t 4 ( u v w x * s q             ",
"y z [ [ [ [ [ [ [ [ 4 4 t A A i z B             ",
"q ' C C C C C C C C C i ( 4 ( ( D E             ",
"F ! u u u u u u u u u u u u u u ! G             ",
"H 4 I I I I I I I I I I I I I I J K             ",
"L i M M M M M M M M M M I I N I i O             ",
"P t Q Q Q Q Q Q Q Q Q Q M M ~ Q R S R           ",
"T A * * * * * * * * * * U U * V W X W           ",
"Y u Z Z Z Z Z Z Z Z Z Z ` *  ... .+.@.#.@.      ",
"$.I 5 5 5 5 5 5 5 5 * * * %.&.*.=.-.;.>.,.      ",
"'.* ).).).).).).).).Z %.%.!.~.~.~.;.{.].].      ",
"^.5 /./././././././.5 (._._._.:.<.[.<.          ",
"}.).p p p p p p p p ).:.:.|.9 /.1.2.2.          ",
"3.p = = = = = = = = 4./.5.w 6.7.(.8.            ",
"9.0.0.0.0.0.0.0.0.0.a.b.p = c.d.e.d.d.f.f.      ",
"9.9.9.9.9.9.9.9.9.9.9.9.9.9.g.h.i.j.k.l.m.      ",
"n.o.o.o.o.o.o.o.o.o.o.o.p.o.q.q.r.r.s.s.t.      "};
