/* XPM */
static const char * toolszoomplus_xpm[] = {
"24 24 40 1",
" 	c None",
".	c #969695",
"+	c #656565",
"@	c #575757",
"#	c #666666",
"$	c #999998",
"%	c #5C5C5C",
"&	c #4D4D4D",
"*	c #5D5D5D",
"=	c #5B5B5B",
"-	c #7B7A7A",
";	c #777777",
">	c #605F5F",
",	c #9A9999",
"'	c #535353",
")	c #595959",
"!	c #9E9D9D",
"~	c #686868",
"{	c #4E4E4E",
"]	c #525252",
"^	c #6A6A69",
"/	c #535352",
"(	c #515151",
"_	c #545454",
":	c #6D6D6D",
"<	c #707070",
"[	c #A4A4A3",
"}	c #5A5A5A",
"|	c #777776",
"1	c #696969",
"2	c #565656",
"3	c #9F9F9E",
"4	c #9F9E9E",
"5	c #8A8A89",
"6	c #919090",
"7	c #868585",
"8	c #8E8E8D",
"9	c #7E7E7E",
"0	c #727272",
"a	c #9D9C9C",
"                        ",
"                        ",
"                        ",
"                        ",
"                        ",
"         .+@@#$         ",
"        %&&&&&&*        ",
"       =&-    ;&>       ",
"      ,&-  ')  ;&!      ",
"      ~&   {]   &^      ",
"      /& '&&&&' &'      ",
"      /& (&&&&( &_      ",
"      ^&   ({   &:      ",
"      !&-  @'  <&[      ",
"       }&|    1&2       ",
"        }&&&&&&&&3      ",
"         $~@2:45&&6     ",
"                7&&8    ",
"                 9&&7   ",
"                  0&&   ",
"                   <a   ",
"                        ",
"                        ",
"                        "};
