/* XPM */
static const char * toolszoomminus_xpm[] = {
"24 24 38 1",
" 	c None",
".	c #969695",
"+	c #656565",
"@	c #575757",
"#	c #666666",
"$	c #999998",
"%	c #5C5C5C",
"&	c #4D4D4D",
"*	c #5D5D5D",
"=	c #5B5B5B",
"-	c #7B7A7A",
";	c #777777",
">	c #605F5F",
",	c #9A9999",
"'	c #9E9D9D",
")	c #686868",
"!	c #6A6A69",
"~	c #535352",
"{	c #535353",
"]	c #515151",
"^	c #545454",
"/	c #6D6D6D",
"(	c #707070",
"_	c #A4A4A3",
":	c #5A5A5A",
"<	c #777776",
"[	c #696969",
"}	c #565656",
"|	c #9F9F9E",
"1	c #676767",
"2	c #9F9E9E",
"3	c #8A8A89",
"4	c #919090",
"5	c #868585",
"6	c #8E8E8D",
"7	c #7E7E7E",
"8	c #727272",
"9	c #9D9C9C",
"                        ",
"                        ",
"                        ",
"                        ",
"                        ",
"         .+@@#$         ",
"        %&&&&&&*        ",
"       =&-    ;&>       ",
"      ,&-      ;&'      ",
"      )&        &!      ",
"      ~& {&&&&{ &{      ",
"      ~& ]&&&&] &^      ",
"      !&        &/      ",
"      '&-      (&_      ",
"       :&<    [&}       ",
"        :&&&&&&&&|      ",
"         $1@}/23&&4     ",
"                5&&6    ",
"                 7&&5   ",
"                  8&&   ",
"                   (9   ",
"                        ",
"                        ",
"                        "};
