/* XPM */
static const char * toolsaddone_xpm[] = {
"24 24 122 2",
"  	c None",
". 	c #89A926",
"+ 	c #80A317",
"@ 	c #86A625",
"# 	c #7C9F1A",
"$ 	c #F3F9AB",
"% 	c #ECF5A3",
"& 	c #E4F199",
"* 	c #7B9E19",
"= 	c #759819",
"- 	c #EDF69F",
"; 	c #DEED68",
"> 	c #E2F090",
", 	c #749718",
"' 	c #779827",
") 	c #6B8F14",
"! 	c #769724",
"~ 	c #7B9B23",
"{ 	c #E4F08E",
"] 	c #D5E85C",
"^ 	c #DBEC83",
"/ 	c #709319",
"( 	c #678B16",
"_ 	c #BED565",
": 	c #C6DB6B",
"< 	c #658A15",
"[ 	c #CFE272",
"} 	c #D5E777",
"| 	c #D8E979",
"1 	c #D9EA7B",
"2 	c #CBE14E",
"3 	c #D3E575",
"4 	c #CDE171",
"5 	c #577F15",
"6 	c #A8C549",
"7 	c #AFCB4E",
"8 	c #608416",
"9 	c #C5DA64",
"0 	c #BCD642",
"a 	c #C0D945",
"b 	c #BED844",
"c 	c #BAD440",
"d 	c #B3CF3B",
"e 	c #ABC936",
"f 	c #B4CE58",
"g 	c #5F8516",
"h 	c #5A7F21",
"i 	c #4E7511",
"j 	c #577D14",
"k 	c #B8D154",
"l 	c #BCD557",
"m 	c #BED659",
"n 	c #BED658",
"o 	c #B2CE3A",
"p 	c #BAD356",
"q 	c #B5D052",
"r 	c #577C1D",
"s 	c #597E19",
"t 	c #B0CB48",
"u 	c #A5C430",
"v 	c #ABC845",
"w 	c #557B16",
"x 	c #4A7112",
"y 	c #A0C035",
"z 	c #98BA26",
"A 	c #9BBC33",
"B 	c #497012",
"C 	c #426911",
"D 	c #8DB123",
"E 	c #8CB023",
"F 	c #88AC22",
"G 	c #416917",
"H 	c #39620E",
"I 	c #456B1C",
"J 	c #ADADAD",
"K 	c #AAAAAA",
"L 	c #DBDBDB",
"M 	c #ABABAB",
"N 	c #DDDDDD",
"O 	c #DCDCDC",
"P 	c #000000",
"Q 	c #0C0C0C",
"R 	c #6C6C6C",
"S 	c #323232",
"T 	c #666666",
"U 	c #121212",
"V 	c #686868",
"W 	c #AFAFAF",
"X 	c #E3E3E3",
"Y 	c #DFDFDF",
"Z 	c #B8B8B8",
"` 	c #030303",
" .	c #D8D8D8",
"..	c #404040",
"+.	c #6D6D6D",
"@.	c #DEDEDE",
"#.	c #191919",
"$.	c #A3A3A3",
"%.	c #1B1B1B",
"&.	c #AEAEAE",
"*.	c #E1E1E1",
"=.	c #737373",
"-.	c #282828",
";.	c #0D0D0D",
">.	c #292929",
",.	c #5F5F5F",
"'.	c #8C8C8C",
").	c #8E8E8E",
"!.	c #ACACAC",
"~.	c #727272",
"{.	c #212121",
"].	c #C9C9C9",
"^.	c #2D2D2D",
"/.	c #A2A2A2",
"(.	c #161616",
"_.	c #171717",
":.	c #D5D5D5",
"<.	c #919191",
"[.	c #1A1A1A",
"}.	c #717171",
"|.	c #676767",
"1.	c #111111",
"                                                ",
"              . + + + @               . + + @   ",
"              # $ % & *               # $ & *   ",
"              = - ; > ,           ' ) = - > ,   ",
"        ! ) ) ~ { ] ^ / ) ) '     ( _ : { ^ '   ",
"        < [ } | 1 2 3 4 : _ (     5 6 7 1 3 (   ",
"        8 9 0 a a b c d e f g     h i g a c g   ",
"        j k l m n o p q 7 6 5         5 n p 5   ",
"        r i i s t u v w i i h         h t v h   ",
"              x y z A B               x y A B   ",
"              C D E F C               C D F C   ",
"              G H H H I               G H H I   ",
"                                                ",
"                                                ",
"J K K K K K K K K K K K K K K K K K K J         ",
"K L L L L L L L L L L L L L L L L L L K         ",
"M N O P P O O P Q R O J S P O T U V N M         ",
"W X Y Y P Y Y Y Z `  ...+.@.Y #.$.%.X W         ",
"&.*.@.@.P @.@.@.=.-.O ;.>.,.@.'.` ).*.&.        ",
"!.Y N N P N N ~.{.].N ^./.U N (./._.Y !.        ",
"M N O P P P O P P P :.<.[.}.O |.1.|.N M         ",
"K L L L L L L L L L L L L L L L L L L K         ",
"J K K K K K K K K K K K K K K K K K K J         ",
"                                                "};
