/* XPM */
static const char * toolseditrange_xpm[] = {
"24 24 150 2",
"  	c None",
". 	c #84A421",
"+ 	c #83A321",
"@ 	c #88A825",
"# 	c #7F9F21",
"$ 	c #E3EE99",
"% 	c #E5EF9C",
"& 	c #82A323",
"* 	c #7C9D20",
"= 	c #D8E48C",
"- 	c #DDE78F",
"; 	c #7E9E21",
"> 	c #75971C",
", 	c #CEDB7E",
"' 	c #D3E084",
") 	c #799A20",
"! 	c #72951D",
"~ 	c #C6D672",
"{ 	c #CDDB7B",
"] 	c #74971F",
"^ 	c #6E911D",
"/ 	c #BCD169",
"( 	c #C5D871",
"_ 	c #6F921E",
": 	c #6A8D1C",
"< 	c #B9CE62",
"[ 	c #BFD169",
"} 	c #6B8E1D",
"| 	c #5B8017",
"1 	c #7C9D2A",
"2 	c #7F9F28",
"3 	c #92AF33",
"4 	c #95B334",
"5 	c #81A31B",
"6 	c #678B1C",
"7 	c #B5CA5F",
"8 	c #BCCF65",
"9 	c #577C18",
"0 	c #84A339",
"a 	c #ABC452",
"b 	c #88A72F",
"c 	c #8EAB35",
"d 	c #BBD066",
"e 	c #A5BF4B",
"f 	c #85A523",
"g 	c #62861A",
"h 	c #B2C959",
"i 	c #B4CA59",
"j 	c #62861B",
"k 	c #5A7F1A",
"l 	c #93AF45",
"m 	c #B9CF5E",
"n 	c #BDD364",
"o 	c #A7C150",
"p 	c #7FA022",
"q 	c #5D8219",
"r 	c #ADC554",
"s 	c #5D8218",
"t 	c #4A7111",
"u 	c #6D9025",
"v 	c #B0C855",
"w 	c #BDD362",
"x 	c #89A830",
"y 	c #6D9113",
"z 	c #587E17",
"A 	c #A8C34D",
"B 	c #A6C14B",
"C 	c #567D16",
"D 	c #7EA127",
"E 	c #81A22E",
"F 	c #91AE43",
"G 	c #A3BE4B",
"H 	c #80A128",
"I 	c #537916",
"J 	c #9EBA41",
"K 	c #A0BB42",
"L 	c #406914",
"M 	c #5D8317",
"N 	c #698E1C",
"O 	c #527714",
"P 	c #587D19",
"Q 	c #86A53B",
"R 	c #8CAA38",
"S 	c #749522",
"T 	c #4E7515",
"U 	c #99B639",
"V 	c #4E7514",
"W 	c #456C13",
"X 	c #476C13",
"Y 	c #597D1A",
"Z 	c #668A20",
"` 	c #ADADAD",
" .	c #AAAAAA",
"..	c #497013",
"+.	c #94B332",
"@.	c #497113",
"#.	c #A9A9A8",
"$.	c #A9A9A9",
"%.	c #939C8A",
"&.	c #969E8F",
"*.	c #DBDBDB",
"=.	c #456C12",
"-.	c #8CAE28",
";.	c #456C11",
">.	c #DADADA",
",.	c #ABABAB",
"'.	c #DDDDDD",
").	c #DCDCDC",
"!.	c #000000",
"~.	c #0C0C0C",
"{.	c #6C6C6C",
"].	c #406810",
"^.	c #666666",
"/.	c #121212",
"(.	c #686868",
"_.	c #AFAFAF",
":.	c #E3E3E3",
"<.	c #DFDFDF",
"[.	c #B8B8B8",
"}.	c #030303",
"|.	c #D8D8D8",
"1.	c #404040",
"2.	c #6D6D6D",
"3.	c #DEDEDE",
"4.	c #191919",
"5.	c #A3A3A3",
"6.	c #1B1B1B",
"7.	c #AEAEAE",
"8.	c #E1E1E1",
"9.	c #737373",
"0.	c #282828",
"a.	c #0D0D0D",
"b.	c #292929",
"c.	c #5F5F5F",
"d.	c #8C8C8C",
"e.	c #8E8E8E",
"f.	c #ACACAC",
"g.	c #727272",
"h.	c #212121",
"i.	c #C9C9C9",
"j.	c #2D2D2D",
"k.	c #A2A2A2",
"l.	c #161616",
"m.	c #171717",
"n.	c #D5D5D5",
"o.	c #919191",
"p.	c #1A1A1A",
"q.	c #717171",
"r.	c #676767",
"s.	c #111111",
"                                                ",
"                      . + . @                   ",
"                      # $ % &                   ",
"                    * = - ;                     ",
"                    > , ' )                     ",
"                    ! ~ { ]                     ",
"                    ^ / ( _                     ",
"                    : < [ [ } | 1 2     3 4 5   ",
"                    6 7 8 6   9 0 a b c d e f   ",
"                    g h i j     k l m n o p     ",
"                    q r r s     t u v w x y     ",
"                    z A B z     C D E F G H     ",
"                    I J K I   L M N O P Q R S   ",
"                    T U V       W X     Y Z     ",
"`  . . . . . . . . ...+.@.#.$. .%.&. .`         ",
" .*.*.*.*.*.*.*.*.=.-.-.;.>.*.*.*.*.*. .        ",
",.'.).!.!.).).!.~.{.].].].!.).^./.(.'.,.        ",
"_.:.<.<.!.<.<.<.[.}.|.1.2.3.<.4.5.6.:._.        ",
"7.8.3.3.!.3.3.3.9.0.).a.b.c.3.d.}.e.8.7.        ",
"f.<.'.'.!.'.'.g.h.i.'.j.k./.'.l.k.m.<.f.        ",
",.'.).!.!.!.).!.!.!.n.o.p.q.).r.s.r.'.,.        ",
" .*.*.*.*.*.*.*.*.*.*.*.*.*.*.*.*.*.*. .        ",
"`  . . . . . . . . . . . . . . . . . .`         ",
"                                                "};
