/* XPM */
static const char * toolsorig_xpm[] = {
"24 24 233 2",
"  	c None",
". 	c #C9C9C9",
"+ 	c #C7C7C7",
"@ 	c #D2D1D1",
"# 	c #EAE9E9",
"$ 	c #C5C5C5",
"% 	c #FAFAFA",
"& 	c #F6F6F6",
"* 	c #E3E3E3",
"= 	c #DCDCDC",
"- 	c #C9C9C8",
"; 	c #E1E0E0",
"> 	c #C4C4C4",
", 	c #F8F8F8",
"' 	c #F0F0F0",
") 	c #F1F1F1",
"! 	c #EFEFEF",
"~ 	c #E4E5E5",
"{ 	c #CBCBCC",
"] 	c #DADADA",
"^ 	c #DBDADA",
"/ 	c #C3C3C3",
"( 	c #EDEDED",
"_ 	c #E1E1E2",
": 	c #C6C6C6",
"< 	c #F9F9F9",
"[ 	c #EAEAEA",
"} 	c #D5D5D5",
"| 	c #CBCBCB",
"1 	c #D8D7D7",
"2 	c #C1C1C1",
"3 	c #F7F7F7",
"4 	c #EEEEEE",
"5 	c #E1E1E1",
"6 	c #C1C1C2",
"7 	c #FCFDFD",
"8 	c #CFCFCF",
"9 	c #DFDFDE",
"0 	c #C0C0C0",
"a 	c #E3E3E4",
"b 	c #CACACA",
"c 	c #B6B7B7",
"d 	c #B2B3B4",
"e 	c #B4B4B5",
"f 	c #BDBEBE",
"g 	c #BEBEBE",
"h 	c #F4F4F4",
"i 	c #ECECEC",
"j 	c #E8E8E9",
"k 	c #DEDFDF",
"l 	c #D6D7D7",
"m 	c #D2D2D3",
"n 	c #D3D4D4",
"o 	c #D9DADA",
"p 	c #DDDDDD",
"q 	c #BABABA",
"r 	c #BDBDBD",
"s 	c #F3F3F3",
"t 	c #EBEBEB",
"u 	c #E7E7E7",
"v 	c #E0E1E1",
"w 	c #DDDDDE",
"x 	c #DEDEDF",
"y 	c #BCBCBC",
"z 	c #F2F2F2",
"A 	c #E9E9E9",
"B 	c #BABAB9",
"C 	c #E8E8E8",
"D 	c #F1F0F0",
"E 	c #B8B9B8",
"F 	c #B9B9B9",
"G 	c #B8B8B7",
"H 	c #B7B7B7",
"I 	c #E6E6E6",
"J 	c #EDEDEE",
"K 	c #B7B6B6",
"L 	c #B6B6B6",
"M 	c #E5E5E5",
"N 	c #E6E5E6",
"O 	c #B6B6B5",
"P 	c #B5B5B5",
"Q 	c #E4E4E4",
"R 	c #E8E8E7",
"S 	c #FDFDEF",
"T 	c #EFF4E5",
"U 	c #EBF1E2",
"V 	c #EEF4E5",
"W 	c #FCFCEE",
"X 	c #BEBEBD",
"Y 	c #B3B3B3",
"Z 	c #E6E6E5",
"` 	c #EBEFCA",
" .	c #83B088",
"..	c #549374",
"+.	c #559576",
"@.	c #579677",
"#.	c #599777",
"$.	c #579676",
"%.	c #569576",
"&.	c #539474",
"*.	c #7EAD86",
"=.	c #E8EEC7",
"-.	c #B2B2B2",
";.	c #E2E2E2",
">.	c #A8C7A4",
",.	c #70A581",
"'.	c #257861",
").	c #17715B",
"!.	c #056653",
"~.	c #026351",
"{.	c #006250",
"].	c #046552",
"^.	c #076653",
"/.	c #066653",
"(.	c #006150",
"_.	c #0C6A56",
":.	c #20755E",
"<.	c #71A482",
"[.	c #9EC19F",
"}.	c #B0B0B0",
"|.	c #89B38E",
"1.	c #338066",
"2.	c #95BC93",
"3.	c #0C6956",
"4.	c #E6EBB7",
"5.	c #16705A",
"6.	c #F4F4BE",
"7.	c #639D7C",
"8.	c #A5C59A",
"9.	c #E1E8B5",
"0.	c #348168",
"a.	c #005D4C",
"b.	c #317F66",
"c.	c #83B08B",
"d.	c #AFAFAF",
"e.	c #DFDFDF",
"f.	c #C7DABD",
"g.	c #4B8F72",
"h.	c #00614F",
"i.	c #6EA381",
"j.	c #3A846A",
"k.	c #C0D4A6",
"l.	c #CEDDAC",
"m.	c #569677",
"n.	c #D4E1AF",
"o.	c #659F7E",
"p.	c #AECA9E",
"q.	c #A0C197",
"r.	c #5A9879",
"s.	c #4D9073",
"t.	c #00604E",
"u.	c #438A6E",
"v.	c #C2D7B8",
"w.	c #AEAEAE",
"x.	c #DEDEDE",
"y.	c #ADCAA2",
"z.	c #00604F",
"A.	c #006351",
"B.	c #026452",
"C.	c #559577",
"D.	c #056553",
"E.	c #4C8F72",
"F.	c #106C58",
"G.	c #247860",
"H.	c #2D7D66",
"I.	c #3D866C",
"J.	c #3F886E",
"K.	c #468D70",
"L.	c #1B725C",
"M.	c #9EC098",
"N.	c #ACACAC",
"O.	c #C1D7B7",
"P.	c #3A856A",
"Q.	c #9ABF96",
"R.	c #A6C59A",
"S.	c #649E7D",
"T.	c #DBE5B2",
"U.	c #BCD3A5",
"V.	c #609C7C",
"W.	c #B9D0A2",
"X.	c #91B891",
"Y.	c #7DAD88",
"Z.	c #FFFDC4",
"`.	c #2F7E65",
" +	c #CDDCAB",
".+	c #96BC94",
"++	c #2D7D65",
"@+	c #BDD4B1",
"#+	c #ABABAB",
"$+	c #E0E0DF",
"%+	c #78A983",
"&+	c #297B63",
"*+	c #005748",
"=+	c #00594A",
"-+	c #C5D8A9",
";+	c #ADC99E",
">+	c #99BD95",
",+	c #2D7E65",
"'+	c #ACC99D",
")+	c #448B6F",
"!+	c #9ABE95",
"~+	c #8DB58F",
"{+	c #BDD2A4",
"]+	c #75A781",
"^+	c #AAAAAA",
"/+	c #DBDBDB",
"(+	c #82AF8E",
"_+	c #649E7C",
":+	c #0A6855",
"<+	c #016351",
"[+	c #005D4D",
"}+	c #005C4B",
"|+	c #005F4E",
"1+	c #016451",
"2+	c #5E9A7A",
"3+	c #7DAD8C",
"4+	c #AEAEAD",
"5+	c #C4D8AC",
"6+	c #579576",
"7+	c #589778",
"8+	c #5A9778",
"9+	c #5B9979",
"0+	c #5A9878",
"a+	c #559575",
"b+	c #BDD4A7",
"c+	c #E1E0DF",
"d+	c #E0DFDE",
"e+	c #E3E3E2",
"f+	c #E6EEDD",
"g+	c #D8E5D1",
"h+	c #D3E2CD",
"i+	c #D7E5D1",
"j+	c #E4EEDC",
". + + + + + + + + + + + @ #                     ",
"$ % % % % % % % % % & * = - ;                   ",
"> , ' ' ' ' ' ' ) ! ~ { ' ] + ^                 ",
"/ , ! ! ! ! ! ! ) ( _ : < [ } | 1               ",
"2 3 4 4 4 4 4 4 ' ( 5 6 7 3 * 8 . 9             ",
"0 & ( ( ( ( ( ( ! ( a b c d e f | /             ",
"g h i i i i i i i ! j k l m n o p q             ",
"r s t t t t t t t 4 ( u v w x * s q             ",
"y z [ [ [ [ [ [ [ [ 4 4 t A A i z B             ",
"q ' C C C C C C C C C i ( 4 ( ( D E             ",
"F ! u u u u u u u u u u u u u u ! G             ",
"H 4 I I I I I I I I I I I I I I J K             ",
"L i M M M M M M M M M M I I N I i O             ",
"P t Q Q Q Q Q Q Q Q M R S T U V W X             ",
"Y A * * * * * Q Z `  ...+.@.#.$.%.&.*.=.        ",
"-.u ;.;.;.;.;.>.,.'.).!.~.{.].^./.(._.:.<.[.    ",
"}.I 5 5 5 5 |.1.(.'.2.3.4.5.6.7.8.9.0.+.a.b.c.  ",
"d.* e.e.e.f.g.{.h.i.j.k.l.m.n.o.p.q.r.s.t.{.u.v.",
"w.5 x.x.x.y.z.A.A.A.B.C.D.E.F.G.H.I.J.K.L.A.z.M.",
"N.e.p p p O.P.z.Q.R.S.T.U.V.W.X.Y.Z.`. +.+{.++@+",
"#+p = = = $+%+&+*+=+-+;++.>+,+'+)+!+~+{+~.'.]+  ",
"^+/+/+/+/+/+/+(+_+:+<+[+z.}+{.|+|+a.1+B.2+3+    ",
"^+^+^+^+^+^+^+^+4+5+6++.7+8+9+0+7++.a+b+        ",
"c+d+d+d+d+e+c+d+d+d+d+d+f+g+h+i+j+d+            "};
