/* XPM */
static const char * toolssubone_xpm[] = {
"24 24 120 2",
"  	c None",
". 	c #89A926",
"+ 	c #80A317",
"@ 	c #86A625",
"# 	c #7C9F1A",
"$ 	c #F3F9AB",
"% 	c #E4F199",
"& 	c #7B9E19",
"* 	c #779827",
"= 	c #6B8F14",
"- 	c #759819",
"; 	c #EDF69F",
"> 	c #E2F090",
", 	c #749718",
"' 	c #769724",
") 	c #78991B",
"! 	c #739714",
"~ 	c #729614",
"{ 	c #678B16",
"] 	c #BED565",
"^ 	c #C6DB6B",
"/ 	c #E4F08E",
"( 	c #DBEC83",
"_ 	c #658A15",
": 	c #CFE272",
"< 	c #D5E777",
"[ 	c #D8E979",
"} 	c #D9EA7B",
"| 	c #CBE14E",
"1 	c #D3E575",
"2 	c #CDE171",
"3 	c #577F15",
"4 	c #A8C549",
"5 	c #AFCB4E",
"6 	c #608416",
"7 	c #C5DA64",
"8 	c #BCD642",
"9 	c #C0D945",
"0 	c #BED844",
"a 	c #BAD440",
"b 	c #B3CF3B",
"c 	c #ABC936",
"d 	c #B4CE58",
"e 	c #5F8516",
"f 	c #5A7F21",
"g 	c #4E7511",
"h 	c #577D14",
"i 	c #B8D154",
"j 	c #BCD557",
"k 	c #BED659",
"l 	c #BED658",
"m 	c #B2CE3A",
"n 	c #BAD356",
"o 	c #B5D052",
"p 	c #577C1D",
"q 	c #567C17",
"r 	c #507710",
"s 	c #4B7210",
"t 	c #4A7110",
"u 	c #4B711A",
"v 	c #B0CB48",
"w 	c #ABC845",
"x 	c #4A7112",
"y 	c #A0C035",
"z 	c #9BBC33",
"A 	c #497012",
"B 	c #426911",
"C 	c #8DB123",
"D 	c #88AC22",
"E 	c #416917",
"F 	c #39620E",
"G 	c #456B1C",
"H 	c #ADADAD",
"I 	c #AAAAAA",
"J 	c #DBDBDB",
"K 	c #ABABAB",
"L 	c #DDDDDD",
"M 	c #DCDCDC",
"N 	c #000000",
"O 	c #0C0C0C",
"P 	c #6C6C6C",
"Q 	c #323232",
"R 	c #666666",
"S 	c #121212",
"T 	c #686868",
"U 	c #AFAFAF",
"V 	c #E3E3E3",
"W 	c #DFDFDF",
"X 	c #B8B8B8",
"Y 	c #030303",
"Z 	c #D8D8D8",
"` 	c #404040",
" .	c #6D6D6D",
"..	c #DEDEDE",
"+.	c #191919",
"@.	c #A3A3A3",
"#.	c #1B1B1B",
"$.	c #AEAEAE",
"%.	c #E1E1E1",
"&.	c #737373",
"*.	c #282828",
"=.	c #0D0D0D",
"-.	c #292929",
";.	c #5F5F5F",
">.	c #8C8C8C",
",.	c #8E8E8E",
"'.	c #ACACAC",
").	c #727272",
"!.	c #212121",
"~.	c #C9C9C9",
"{.	c #2D2D2D",
"].	c #A2A2A2",
"^.	c #161616",
"/.	c #171717",
"(.	c #D5D5D5",
"_.	c #919191",
":.	c #1A1A1A",
"<.	c #717171",
"[.	c #676767",
"}.	c #111111",
"                                                ",
"                                      . + + @   ",
"                                      # $ % &   ",
"                                  * = - ; > ,   ",
"        ' = = ) ! ! ~ , = = *     { ] ^ / ( *   ",
"        _ : < [ } | 1 2 ^ ] {     3 4 5 } 1 {   ",
"        6 7 8 9 9 0 a b c d e     f g e 9 a e   ",
"        h i j k l m n o 5 4 3         3 l n 3   ",
"        p g g q r s t u g g f         f v w f   ",
"                                      x y z A   ",
"                                      B C D B   ",
"                                      E F F G   ",
"                                                ",
"                                                ",
"H I I I I I I I I I I I I I I I I I I H         ",
"I J J J J J J J J J J J J J J J J J J I         ",
"K L M N N M M N O P M H Q N M R S T L K         ",
"U V W W N W W W X Y Z `  ...W +.@.#.V U         ",
"$.%.....N ......&.*.M =.-.;...>.Y ,.%.$.        ",
"'.W L L N L L ).!.~.L {.].S L ^.]./.W '.        ",
"K L M N N N M N N N (._.:.<.M [.}.[.L K         ",
"I J J J J J J J J J J J J J J J J J J I         ",
"H I I I I I I I I I I I I I I I I I I H         ",
"                                                "};
