/* XPM */
static const char * toolsdiff_xpm[] = {
"24 24 144 2",
"  	c None",
". 	c #C9C9C9",
"+ 	c #C7C7C7",
"@ 	c #D2D1D1",
"# 	c #EAE9E9",
"$ 	c #C5C5C5",
"% 	c #FAFAFA",
"& 	c #F6F6F6",
"* 	c #E3E3E3",
"= 	c #DCDCDC",
"- 	c #C9C9C8",
"; 	c #E1E0E0",
"> 	c #C4C4C4",
", 	c #F8F8F8",
"' 	c #F0F0F0",
") 	c #F1F1F1",
"! 	c #EFEFEF",
"~ 	c #E4E5E5",
"{ 	c #CBCBCC",
"] 	c #DADADA",
"^ 	c #DBDADA",
"/ 	c #C3C3C3",
"( 	c #EDEDED",
"_ 	c #E1E1E2",
": 	c #C6C6C6",
"< 	c #F9F9F9",
"[ 	c #EAEAEA",
"} 	c #D5D5D5",
"| 	c #CBCBCB",
"1 	c #D8D7D7",
"2 	c #C1C1C1",
"3 	c #F7F7F7",
"4 	c #EEEEEE",
"5 	c #E1E1E1",
"6 	c #C1C1C2",
"7 	c #FCFDFD",
"8 	c #CFCFCF",
"9 	c #DFDFDE",
"0 	c #C0C0C0",
"a 	c #E3E3E4",
"b 	c #CACACA",
"c 	c #B6B7B7",
"d 	c #B2B3B4",
"e 	c #B4B4B5",
"f 	c #BDBEBE",
"g 	c #BEBEBE",
"h 	c #F4F4F4",
"i 	c #ECECEC",
"j 	c #E8E8E9",
"k 	c #DEDFDF",
"l 	c #D6D7D7",
"m 	c #D2D2D3",
"n 	c #D3D4D4",
"o 	c #D9DADA",
"p 	c #DDDDDD",
"q 	c #BABABA",
"r 	c #BDBDBD",
"s 	c #F3F3F3",
"t 	c #EBEBEB",
"u 	c #E7E7E7",
"v 	c #E0E1E1",
"w 	c #DDDDDE",
"x 	c #DEDEDF",
"y 	c #BCBCBC",
"z 	c #F2F2F2",
"A 	c #E9E9E9",
"B 	c #BABAB9",
"C 	c #E8E8E8",
"D 	c #F1F0F0",
"E 	c #B8B9B8",
"F 	c #B9B9B9",
"G 	c #B8B8B7",
"H 	c #B7B7B7",
"I 	c #E6E6E6",
"J 	c #EDEDEE",
"K 	c #B7B6B6",
"L 	c #B6B6B6",
"M 	c #E5E5E5",
"N 	c #E6E5E6",
"O 	c #B6B6B5",
"P 	c #B5B5B5",
"Q 	c #E4E4E4",
"R 	c #EBEBEA",
"S 	c #7575A1",
"T 	c #9C9CC8",
"U 	c #B3B3B3",
"V 	c #E3E4E4",
"W 	c #E6E6E7",
"X 	c #414192",
"Y 	c #5656A7",
"Z 	c #B2B2B2",
"` 	c #E2E2E2",
" .	c #E1E2E1",
"..	c #E2E3E3",
"+.	c #E8E7E8",
"@.	c #00007F",
"#.	c #B0B0B0",
"$.	c #E2E2E1",
"%.	c #000080",
"&.	c #AFAFAF",
"*.	c #DFDFDF",
"=.	c #E1E1E0",
"-.	c #E1E0E1",
";.	c #CDCED8",
">.	c #181886",
",.	c #AEAEAE",
"'.	c #DEDEDE",
").	c #E0E1E0",
"!.	c #E0E0E0",
"~.	c #252590",
"{.	c #8989A5",
"].	c #262691",
"^.	c #ACACAC",
"/.	c #E0DFDF",
"(.	c #DFDEDF",
"_.	c #9191BD",
":.	c #BFBED1",
"<.	c #ADADAC",
"[.	c #3E3E9C",
"}.	c #030381",
"|.	c #9D9CC8",
"1.	c #ABABAB",
"2.	c #DDDEDE",
"3.	c #DEDEDD",
"4.	c #7879B2",
"5.	c #4E4EA3",
"6.	c #8383BD",
"7.	c #AAAAAA",
"8.	c #DBDBDB",
"9.	c #DCDCDD",
"0.	c #DDDCDD",
"a.	c #C9C9D4",
"b.	c #C3C3D1",
"c.	c #080883",
"d.	c #3B3B8E",
"e.	c #34348C",
"f.	c #42428F",
"g.	c #424290",
"h.	c #6463AD",
"i.	c #020281",
"j.	c #5151A4",
"k.	c #E1E0DF",
"l.	c #E0DFDE",
"m.	c #DFDEDD",
". + + + + + + + + + + + @ #                     ",
"$ % % % % % % % % % & * = - ;                   ",
"> , ' ' ' ' ' ' ) ! ~ { ' ] + ^                 ",
"/ , ! ! ! ! ! ! ) ( _ : < [ } | 1               ",
"2 3 4 4 4 4 4 4 ' ( 5 6 7 3 * 8 . 9             ",
"0 & ( ( ( ( ( ( ! ( a b c d e f | /             ",
"g h i i i i i i i ! j k l m n o p q             ",
"r s t t t t t t t 4 ( u v w x * s q             ",
"y z [ [ [ [ [ [ [ [ 4 4 t A A i z B             ",
"q ' C C C C C C C C C i ( 4 ( ( D E             ",
"F ! u u u u u u u u u u u u u u ! G             ",
"H 4 I I I I I I I I I I I I I I J K             ",
"L i M M M M M M M M M M I I N I i O             ",
"P t Q Q Q Q Q Q Q Q Q Q M M ~ M R S T           ",
"U A * * * * * * * * * * V V Q V W X Y           ",
"Z u ` ` ` ` ` ` ` ` ` `  .* ..` +.@.@.          ",
"#.I 5 5 5 5 5 5 5 5 * * * $.` ` %.%.@.%.        ",
"&.* *.*.*.*.*.*.*.*.` $.$.=.-.;.%.>.%.@.        ",
",.5 '.'.'.'.'.'.'.'.5 ).!.!.!.~.@.{.%.%.].      ",
"^.*.p p p p p p p p *././.(._.@.:.<.[.%.}.|.    ",
"1.p = = = = = = = = 2.'.3.w 4.%.).<.5.@.@.6.    ",
"7.8.8.8.8.8.8.8.8.8.9.0.p a.@.b.9 ^.  c.%.@.    ",
"7.7.7.7.7.7.7.7.7.7.7.7.7.d.@.e.f.g.h.i.%.@.j.  ",
"k.l.l.l.l.l.l.l.l.l.l.l.m.%.%.@.%.%.%.%.%.%.@.  "};
