/* XPM */
static const char * toolssearch_xpm[] = {
"24 24 122 2",
"  	c None",
". 	c #E3E2E1",
"+ 	c #ADACAC",
"@ 	c #7B7B7A",
"# 	c #6A6A6A",
"$ 	c #6B6B6B",
"% 	c #AFAEAE",
"& 	c #E5E4E3",
"* 	c #B5B5B4",
"= 	c #5F5F5E",
"- 	c #606060",
"; 	c #979696",
"> 	c #BFBFBE",
", 	c #C1C1C0",
"' 	c #9E9E9D",
") 	c #686868",
"! 	c #605F5F",
"~ 	c #B1B0AF",
"{ 	c #50504F",
"] 	c #909090",
"^ 	c #F0F0EF",
"/ 	c #FAF9F9",
"( 	c #F9F9F8",
"_ 	c #F9F8F8",
": 	c #F8F8F7",
"< 	c #F3F2F2",
"[ 	c #A2A1A1",
"} 	c #545454",
"| 	c #B2B2B1",
"1 	c #D8D7D6",
"2 	c #515050",
"3 	c #7F7E7E",
"4 	c #F9F9F9",
"5 	c #F8F7F7",
"6 	c #F7F6F6",
"7 	c #969595",
"8 	c #515151",
"9 	c #DAD9D8",
"0 	c #919090",
"a 	c #494949",
"b 	c #E3E3E2",
"c 	c #F6F5F4",
"d 	c #ECEBEA",
"e 	c #4F4E4E",
"f 	c #949393",
"g 	c #5E5D5D",
"h 	c #585858",
"i 	c #F7F7F6",
"j 	c #F4F3F2",
"k 	c #6E6D6D",
"l 	c #5D5C5C",
"m 	c #4E4E4D",
"n 	c #F5F4F4",
"o 	c #787878",
"p 	c #565656",
"q 	c #F5F5F4",
"r 	c #F4F4F3",
"s 	c #5F5F5F",
"t 	c #575757",
"u 	c #828181",
"v 	c #535353",
"w 	c #AFAFAE",
"x 	c #F5F4F3",
"y 	c #F4F3F3",
"z 	c #CACAC9",
"A 	c #848383",
"B 	c #D1D0D0",
"C 	c #444444",
"D 	c #CDCCCC",
"E 	c #DBDBDA",
"F 	c #484848",
"G 	c #D2D1D0",
"H 	c #999998",
"I 	c #696969",
"J 	c #DDDCDB",
"K 	c #E4E4E3",
"L 	c #9D9C9C",
"M 	c #666666",
"N 	c #4B4B4B",
"O 	c #717171",
"P 	c #979796",
"Q 	c #404040",
"R 	c #646464",
"S 	c #737373",
"T 	c #727272",
"U 	c #3E3E3E",
"V 	c #383838",
"W 	c #595959",
"X 	c #8F8F8F",
"Y 	c #EFEEED",
"Z 	c #858585",
"` 	c #4A4A4A",
" .	c #3F3F3F",
"..	c #878786",
"+.	c #C5C4C4",
"@.	c #454545",
"#.	c #3B3B3B",
"$.	c #555554",
"%.	c #747373",
"&.	c #DFDEDD",
"*.	c #4C4C4C",
"=.	c #DBDAD9",
"-.	c #545453",
";.	c #525252",
">.	c #E9E8E7",
",.	c #5D5D5D",
"'.	c #3C3C3B",
").	c #555555",
"!.	c #676766",
"~.	c #BCBBBA",
"{.	c #3C3C3C",
"].	c #A3A3A2",
"^.	c #5C5C5C",
"/.	c #707070",
"(.	c #929292",
"_.	c #F0EFEE",
":.	c #767676",
"<.	c #434343",
"[.	c #474746",
"}.	c #F1F0EF",
"|.	c #7F7F7E",
"1.	c #C1C0BF",
"                                                ",
"                                                ",
"          . + @ # $ @ % &                       ",
"        * = - ; > , ' ) ! *                     ",
"      ~ { ] ^ / ( _ : < [ } |                   ",
"    1 2 3 : / / 4 _ : 5 6 7 8 9                 ",
"    0 a b _ ( ( ( _ : 5 c d e f                 ",
"    g h 5 : _ _ _ : : i j < k l                 ",
"    m - i 5 5 : : : 5 n j j o m                 ",
"    p } < 6 i 5 5 6 q r j j s t                 ",
"    u v w x q c q q x x y z } A                 ",
"    B C - D j r x x x r E - F G                 ",
"      H a I ] J r r K L M N O                   ",
"        P Q R S T S O ) U V W X Y               ",
"          9 Z `  .Q ` ..+.@.#.$.%.&             ",
"                          &.*.#.} I =.          ",
"                            & -.#.;.R D         ",
"                              >.,.'.).!.~.      ",
"                                d ) {.W # ].    ",
"                                  d I U ^./.(.  ",
"                                    _.:.<.N [.  ",
"                                      }.|.<.1.  ",
"                                                ",
"                                                "};
