/* XPM */
static const char * td5mapeditor_xpm[] = {
"32 32 315 2",
"  	c None",
". 	c #171717",
"+ 	c #191919",
"@ 	c #1A1A1A",
"# 	c #2C2C2C",
"$ 	c #BEBEBE",
"% 	c #CECECE",
"& 	c #2D2D2D",
"* 	c #D0D0D0",
"= 	c #E1E1E1",
"- 	c #E3E3E3",
"; 	c #CFCFCF",
"> 	c #C7C7C7",
", 	c #CDCDCD",
"' 	c #2E2E2E",
") 	c #DBDBDB",
"! 	c #9F9F9F",
"~ 	c #C1C1C1",
"{ 	c #DADADB",
"] 	c #9595A0",
"^ 	c #313131",
"/ 	c #BCBCBC",
"( 	c #E2E2E3",
"_ 	c #CBCBE3",
": 	c #7D7DF1",
"< 	c #CECEE7",
"[ 	c #D2D2D2",
"} 	c #1B1B1B",
"| 	c #C7C7E3",
"1 	c #5454D5",
"2 	c #6464FA",
"3 	c #7B7BFA",
"4 	c #D9D9E5",
"5 	c #181818",
"6 	c #ACACAC",
"7 	c #CCCCCC",
"8 	c #C7C7E8",
"9 	c #4E4EF4",
"0 	c #3535C4",
"a 	c #5959E4",
"b 	c #6969E8",
"c 	c #D7D7E3",
"d 	c #070707",
"e 	c #303030",
"f 	c #4F4FFA",
"g 	c #3030E9",
"h 	c #0F0F2F",
"i 	c #212130",
"j 	c #343441",
"k 	c #C0C0C2",
"l 	c #2F2F2F",
"m 	c #D5D5D5",
"n 	c #E8E8E8",
"o 	c #D3D3D3",
"p 	c #BBBBBB",
"q 	c #C1C1D0",
"r 	c #4B4BE3",
"s 	c #3030E8",
"t 	c #2D2DD5",
"u 	c #303041",
"v 	c #3F3F3F",
"w 	c #1C1C1C",
"x 	c #D7D7D7",
"y 	c #FDFDFD",
"z 	c #FFFFFF",
"A 	c #D5D5D6",
"B 	c #1D1D29",
"C 	c #2C2C2D",
"D 	c #2F2F30",
"E 	c #212133",
"F 	c #1E1E31",
"G 	c #1F1F30",
"H 	c #D5D5D7",
"I 	c #EAEAEA",
"J 	c #41414D",
"K 	c #2E2E94",
"L 	c #D5D5E0",
"M 	c #434343",
"N 	c #323232",
"O 	c #D7D7D8",
"P 	c #2E2E39",
"Q 	c #1D1D1F",
"R 	c #424242",
"S 	c #D7D7D9",
"T 	c #E9E9F6",
"U 	c #FBFBFC",
"V 	c #FBFBFB",
"W 	c #ECECEC",
"X 	c #BABABA",
"Y 	c #ADADAD",
"Z 	c #EAEAEB",
"` 	c #2E2E45",
" .	c #06066C",
"..	c #2C2C37",
"+.	c #D8D8D9",
"@.	c #33333F",
"#.	c #D5D5E2",
"$.	c #161688",
"%.	c #191931",
"&.	c #32323F",
"*.	c #2D2DA9",
"=.	c #2B2B9E",
"-.	c #454551",
";.	c #ABABAB",
">.	c #414141",
",.	c #2E2E48",
"'.	c #070785",
").	c #1B1B2A",
"!.	c #1F1F2C",
"~.	c #272799",
"{.	c #202039",
"].	c #464646",
"^.	c #333333",
"/.	c #313132",
"(.	c #1D1D2A",
"_.	c #191926",
":.	c #060607",
"<.	c #060606",
"[.	c #2A2A2A",
"}.	c #1E1E9D",
"|.	c #2626B0",
"1.	c #1F1F2D",
"2.	c #1F1F2A",
"3.	c #2B2B9D",
"4.	c #060611",
"5.	c #EAEAEC",
"6.	c #363650",
"7.	c #2D2DB9",
"8.	c #2F2FBB",
"9.	c #21213B",
"0.	c #E6E6E6",
"a.	c #FDFDFE",
"b.	c #E9E9F7",
"c.	c #D2D2E0",
"d.	c #19191A",
"e.	c #D7D7E4",
"f.	c #4141BF",
"g.	c #3333CA",
"h.	c #302FAD",
"i.	c #433946",
"j.	c #D7D6D6",
"k.	c #554A4B",
"l.	c #524849",
"m.	c #C4C2C3",
"n.	c #20202E",
"o.	c #2E2E3B",
"p.	c #252527",
"q.	c #21212D",
"r.	c #22223D",
"s.	c #3131BD",
"t.	c #3333CC",
"u.	c #4339C4",
"v.	c #C0697B",
"w.	c #322835",
"x.	c #22212D",
"y.	c #2F2528",
"z.	c #332735",
"A.	c #B35C6E",
"B.	c #312735",
"C.	c #302633",
"D.	c #B15B5F",
"E.	c #423838",
"F.	c #29299A",
"G.	c #2626A3",
"H.	c #09097A",
"I.	c #111111",
"J.	c #70707C",
"K.	c #3C3CAF",
"L.	c #3030BA",
"M.	c #3434CC",
"N.	c #3E3ECB",
"O.	c #4140CA",
"P.	c #A096BC",
"Q.	c #3C3BB9",
"R.	c #2F2FB9",
"S.	c #3E34B3",
"T.	c #B65F87",
"U.	c #4135B4",
"V.	c #4339C2",
"W.	c #2F2DAA",
"X.	c #322740",
"Y.	c #C2C1C2",
"Z.	c #2E2E30",
"`.	c #20202C",
" +	c #AFAFB0",
".+	c #86869E",
"++	c #4141C2",
"@+	c #3434CB",
"#+	c #9191C4",
"$+	c #3F3FCB",
"%+	c #3534CB",
"&+	c #4239C6",
"*+	c #3734CB",
"=+	c #523EC1",
"-+	c #BC6499",
";+	c #4238C4",
">+	c #2E2EAE",
",+	c #34344C",
"'+	c #8888A0",
")+	c #3535CB",
"!+	c #3D3DCB",
"~+	c #3030CC",
"{+	c #443AC6",
"]+	c #C76F98",
"^+	c #533FC0",
"/+	c #4238C5",
"(+	c #322FAD",
"_+	c #BDBDBD",
":+	c #D0D0D2",
"<+	c #808099",
"[+	c #4040C1",
"}+	c #3030CB",
"|+	c #1111CC",
"1+	c #4848CA",
"2+	c #9292C4",
"3+	c #3B3ACA",
"4+	c #9D93BE",
"5+	c #4A48CA",
"6+	c #BA6399",
"7+	c #513DBF",
"8+	c #B15A7C",
"9+	c #2C2235",
"0+	c #1B1B2E",
"a+	c #1F1F2E",
"b+	c #262627",
"c+	c #1C1C28",
"d+	c #B8B8B8",
"e+	c #939395",
"f+	c #787892",
"g+	c #3535C2",
"h+	c #2E2ECC",
"i+	c #1A1ACB",
"j+	c #2424CA",
"k+	c #8E8EC4",
"l+	c #3F3ECA",
"m+	c #4238C6",
"n+	c #2E2CCB",
"o+	c #180DC5",
"p+	c #0302BA",
"q+	c #1010B4",
"r+	c #2E2EAF",
"s+	c #1B1B8C",
"t+	c #71717C",
"u+	c #767682",
"v+	c #0D0D73",
"w+	c #040412",
"x+	c #8A8A97",
"y+	c #1F1F9F",
"z+	c #2C2CC3",
"A+	c #3939CB",
"B+	c #8B8BC4",
"C+	c #3737CB",
"D+	c #3636C7",
"E+	c #1414C6",
"F+	c #0C0CC6",
"G+	c #1717C1",
"H+	c #78789A",
"I+	c #868695",
"J+	c #848490",
"K+	c #959596",
"L+	c #BFBFC1",
"M+	c #BEBEC1",
"N+	c #6D6D91",
"O+	c #1D1D9E",
"P+	c #3636C2",
"Q+	c #2C2CC7",
"R+	c #0E0ECB",
"S+	c #1414CB",
"T+	c #0C0CCC",
"U+	c #3333CB",
"V+	c #1919CB",
"W+	c #0C0CC7",
"X+	c #3C3CC1",
"Y+	c #828294",
"Z+	c #828295",
"`+	c #8A8A9B",
" @	c #D2D2D4",
".@	c #DADADA",
"+@	c #D8D8D8",
"@@	c #CBCBCB",
"#@	c #191925",
"$@	c #171780",
"%@	c #66668A",
"&@	c #71718D",
"*@	c #1414A1",
"=@	c #3535C7",
"-@	c #8787C4",
";@	c #0F0FCB",
">@	c #8B8BBA",
",@	c #26269E",
"'@	c #7C7C95",
")@	c #959597",
"!@	c #E2E2E2",
"~@	c #050520",
"{@	c #16167D",
"]@	c #66667E",
"^@	c #191999",
"/@	c #2C2CC2",
"(@	c #3535C6",
"_@	c #1010C2",
":@	c #19199F",
"<@	c #868694",
"[@	c #8C8C97",
"}@	c #D2D2D3",
"|@	c #050512",
"1@	c #19191D",
"2@	c #64647E",
"3@	c #0F0F8F",
"4@	c #666683",
"5@	c #888895",
"6@	c #E0E0E0",
"7@	c #050514",
"8@	c #040413",
"9@	c #232324",
"0@	c #B7B7B7",
"                            . + + +                             ",
"                    @ @ @ # $ % % $ & @ @ @                     ",
"                @ & $ % % * = - - = ; > , $ & @                 ",
"              ' $ * = - - - - - - - ) ! ) = * $ '               ",
"          @ & ~ = - - - - - - - - - { ] { - - = ~ ^             ",
"        @ / * = - - - - - - - - - ( _ : < ( - - = [ , }         ",
"        & * - - - - - - - - - - ( | 1 2 3 4 - - - - * &         ",
"      5 6 7 % % % % % % * = - ( 8 9 0 a b c - - - - = ~ '       ",
"    d } ' e e e e e e ' ' * ( 8 f g h i j k = - - - - = $ @     ",
"    l m n n n n n n n o # p q r s t u m m v * - - - - - * &     ",
"  w x y z z z z z z y A B C D E F G H y n e % - - - - - = $ @   ",
"  . o I y z z y I n x J K L n n m M I z n ' p % % % % % % p 5   ",
"  + # N I z y O P Q R S T U I I V W y y x e ' e e e e e e ' w   ",
"+ X Y v I z Z `  ...x y y +.@.@.+.y z I M m n n n n n n n n m } ",
"+ / v x y y #.$.%.A y z I &.*.=.-.W y x M I y I n n n n n n o + ",
". ;.>.I z Z ,.'.).n z z n !.~.{.H y I M x y W ].^.^.^.^./.(._.:.",
"<.[.x y y #.}.|.1.n z z I /.2./.I z n ^.n z y I n n n n L 3.$.4.",
"<.' I z 5.6.7.8.9.H y z y I 0.x V y x M I z z y I n I y a.b.c.d.",
"+ ~ 0.n e.f.g.g.h.i.j.n n n j.k.j.j.l.m.0.n n H @.n.o.O y z n } ",
"  w p.q.r.s.t.t.u.v.w.n.x.y.z.A.B.C.D.E.^.^.^ 2.F.G.H.J W z n } ",
"  I.J.K.L.g.M.N.O.P.Q.R.S.T.U.V.U.W.X.Y.0.n m Z.`.n.o.O y y m + ",
"  @  +.+++@+N.#+$+N.M.t.%+&+*+=+-+;+>+,++.y y I n n I y y x # d ",
"    & k '+++)+!+~+t.M.N.M.t.{+]+^+*+/+(+i.j.n n n n n n m # d   ",
"    @ _+:+<+[+}+|+~+1+2+N.t.3+4+5+{+6+7+8+9+0+a+B b+b+c+d.d     ",
"      ' d+e+f+g+h+!+2+1+M.~+i+j+k+l+m+n+o+p+q+r+s+t+u+v+w+      ",
"        & ~ x+y+z+@+!+~+h+A+B+C+A+@+D+E+F+G+H+I+J+K+L+_.        ",
"        @ / M+N+O+P+Q+R+S+T+U+V+W+X+f+Y+Z+`+ @.@+@@@, }         ",
"          @ #@$@%@&@*@=@-@;@E+>@,@'@)@o .@) !@= ~ ^             ",
"              ~@{@]@^@/@(@_@:@<@[@}@) !@- = * $ '               ",
"                |@1@2@3@3@4@5@}@) 6@* % % $ & @                 ",
"                      7@8@9@0@, % $ & @ @ @                     ",
"                            + + + +                             "};
